<?xml version="1.0" standalone="no"?>
<!DOCTYPE svg PUBLIC "-//W3C//DTD SVG 1.1//EN" "http://www.w3.org/Graphics/SVG/1.1/DTD/svg11.dtd">
<svg xmlns="http://www.w3.org/2000/svg">
<defs >
<font id="B612" horiz-adv-x="1286" ><font-face
    font-family="B612"
    units-per-em="2000"
    panose-1="2 11 6 6 5 0 0 2 0 4"
    ascent="1930"
    descent="-500"
    alphabetic="0" />
<glyph unicode=" " glyph-name="space" horiz-adv-x="700" />
<glyph unicode="!" glyph-name="exclam" horiz-adv-x="700" d="M663 1500L477 444L171 409L363 1500H663ZM136 137Q138 167 154 195T194 245T249 277T309 285Q369 278 402 238T431 137Q429 106 413 78T373 28T318 -4T258 -14Q227 -12 203 1T164 34T141 80T136 137Z" />
<glyph unicode="&quot;" glyph-name="quotedbl" horiz-adv-x="800" d="M937 1500L914 1367Q911 1349 906 1325T895 1273T882 1219T868 1168L818 1013H638L642 1168Q643 1191 646 1218T652 1273T660 1324T668 1367L691 1500H937ZM637 1500L614 1367Q611 1349 606
1325T595 1273T582 1219T568 1168L518 1013H338L342 1168Q343 1191 346 1218T352 1273T360 1324T368 1367L391 1500H637Z" />
<glyph unicode="#" glyph-name="numbersign" horiz-adv-x="1700" d="M1496 902Q1484 861 1473 825T1451 753T1428 679T1404 598H1709L1644 380H1341L1227 6L883 -27L1007 380H729L618 6L275 -27L397 380H122L160 598H460L552 902H210L275 1120H617L658 1258L700
1494L1072 1526L949 1120H1228L1339 1494L1682 1527L1561 1120H1797L1759 902H1496ZM1163 902H886Q874 861 863 825T841 753T818 679T794 598H1071L1163 902Z" />
<glyph unicode="$" glyph-name="dollar" horiz-adv-x="1100" d="M786 430Q786 472 774 505T740 566L687 264Q730 290 758 331T786 430ZM586 1125Q586 1086 598 1058T634 1007L679 1264Q639 1247 613 1215T586 1125ZM1059 1178Q1019 1207 986 1226T920 1259L851
864Q902 832 952 795T1040 709T1098 596T1110 448Q1101 356 1064 283T969 154T839 61T689 3L655 -190H365L397 -9Q293 5 205 38T50 121L228 348Q271 313 321 284T440 238L525 719Q465 752 413 787T324 866T266 966T250 1097Q254 1178 290 1246T383 1366T513 1453T663
1505L695 1681L1002 1719L962 1497Q1109 1463 1243 1369L1059 1178Z" />
<glyph unicode="%" glyph-name="percent" horiz-adv-x="1800" d="M633 0H310L1393 1500H1707L633 0ZM1348 -17Q1175 -1 1098 101T1036 382Q1043 467 1081 542T1179 672T1318 754T1487 774Q1659 758 1737 656T1799 382Q1791 295 1755 219T1660 87T1522 3T1348 -17ZM1507
371Q1510 407 1510 440T1505 500T1486 543T1449 566Q1426 570 1407 557T1373 518T1348 461T1333 396Q1328 360 1328 327T1334 268T1353 224T1390 203Q1412 200 1432 214T1467 252T1493 308T1507 371ZM528 726Q355 742 278 844T216 1125Q223 1210 261 1285T359 1415T498
1497T667 1517Q839 1501 917 1399T979 1125Q971 1038 935 962T840 830T702 746T528 726ZM687 1114Q690 1150 690 1183T685 1243T666 1286T629 1309Q606 1313 587 1300T553 1261T528 1204T513 1139Q508 1103 508 1070T514 1011T533 967T570 946Q592 943 612 957T647
995T673 1051T687 1114Z" />
<glyph unicode="&amp;" glyph-name="ampersand" horiz-adv-x="1400" d="M1459 760Q1451 685 1431 610T1380 466T1306 337T1209 229L1351 -19H993L960 42Q888 10 813 -7T652 -19Q545 -12 451 25T287 126T180 281T152 488Q158 564 191 630T272 749T374 843T478 907Q453
965 447 1027T444 1154Q449 1242 487 1313T590 1433T740 1505T927 1519Q1010 1512 1073 1489T1182 1435T1260 1370T1312 1308L1133 1098Q1113 1125 1083 1158T1020 1220T952 1270T887 1290Q847 1290 817 1275T769 1233T746 1174T750 1104Q754 1090 758 1075T773
1034T803 970T856 869T939 719T1061 507Q1090 551 1107 608T1126 725L1459 760ZM697 217Q732 217 766 224T839 251L589 691Q522 653 490 598T455 489Q453 426 469 379T518 299T595 245T697 217Z" />
<glyph unicode="&apos;" glyph-name="quotesingle" horiz-adv-x="400" d="M364 1500H634L611 1367Q589 1267 543 1196T417 1068H278Q295 1148 312 1224T341 1367L364 1500Z" />
<glyph unicode="(" glyph-name="parenleft" horiz-adv-x="900" d="M361 1158Q374 1228 388 1290T422 1403T470 1493T539 1558T635 1595T766 1600Q791 1598 814 1595T861 1585T911 1569T968 1545L858 1431Q836 1435 810 1435T759 1415T714 1352T681 1227L456 -46Q444
-104 450 -140T472 -199T510 -231T554 -245L631 -365Q608 -378 580 -389T522 -407T463 -418T409 -420Q338 -415 290 -393T211 -336T166 -257T148 -163T149 -62T163 38L361 1158Z" />
<glyph unicode=")" glyph-name="parenright" horiz-adv-x="900" d="M736 38Q723 -37 710 -100T679 -215T633 -305T566 -370T467 -409T328 -420Q303 -420 276 -416T221 -405T169 -388T126 -365L245 -245Q266 -244 289 -244T335 -227T378 -170T413 -46L638 1227Q650
1292 642 1331T615 1391T573 1420T533 1431L463 1545Q486 1558 514 1568T572 1586T631 1596T685 1600Q760 1600 809 1581T889 1528T934 1450T950 1357T948 1256T934 1158L736 38Z" />
<glyph unicode="*" glyph-name="asterisk" horiz-adv-x="1100" d="M904 926L974 805L780 654L694 800L672 990L589 800L462 656L285 781L437 950L614 1041H404L262 1090L344 1309L520 1259L655 1120L622 1315L645 1446L879 1470L850 1309L739 1117L909 1247L1062
1294L1118 1083L972 1037H749L904 926Z" />
<glyph unicode="+" glyph-name="plus" horiz-adv-x="1200" d="M207 700H567L643 1130H853L777 700H1137L1102 500H742L671 100H461L532 500H172L207 700Z" />
<glyph unicode="," glyph-name="comma" horiz-adv-x="500" d="M84 169Q85 208 103 244T153 307T224 348T311 356Q355 351 385 333T435 286T462 223T469 148Q467 98 442 35T376 -92T282 -212T168 -303L26 -238Q92 -180 122 -124T164 0Q128 26 105 64T84 169Z" />
<glyph unicode="-" glyph-name="hyphen" horiz-adv-x="900" d="M234 624H861L821 400H194L234 624Z" />
<glyph unicode="." glyph-name="period" horiz-adv-x="500" d="M95 171Q98 209 118 244T168 306T236 346T311 356Q387 348 428 298T464 171Q462 132 442 97T392 36T323 -5T248 -17Q209 -14 179 1T130 42T101 101T95 171Z" />
<glyph unicode="/" glyph-name="slash" horiz-adv-x="1100" d="M342 -100H-10L699 1600H1042L342 -100Z" />
<glyph unicode="0" glyph-name="zero" horiz-adv-x="1300" d="M594 -16Q502 -9 433 26T315 117T234 246T188 402T172 574T182 750Q193 841 221 935T292 1118T393 1283T523 1414T680 1497T864 1516Q957 1507 1027 1472T1147 1380T1229 1252T1275 1097T1290 926T1276
750Q1262 659 1235 565T1165 384T1067 220T939 88T781 5T594 -16ZM524 791Q517 738 510 677T501 555T502 437T521 334T565 260T643 226Q685 221 721 239T787 293T841 376T883 479T914 593T934 709Q941 764 947 826T956 949T954 1067T933 1168T888 1240T813 1273Q771
1277 735 1258T670 1204T616 1121T574 1017T543 904T524 791Z" />
<glyph unicode="1" glyph-name="one" horiz-adv-x="1300" d="M700 880L838 1243L563 972L466 898L343 1083L901 1525L1124 1492L896 200H1139L1104 0H302L337 200H580L700 880Z" />
<glyph unicode="2" glyph-name="two" horiz-adv-x="1300" d="M124 0L157 190Q197 239 247 294T351 406T461 518T566 621T659 710T731 775Q787 825 826 862T891 928T932 977T957 1017T972 1055T985 1097Q994 1128 989 1162T965 1225T915 1275T844 1300Q763 1307
688 1253T554 1096L336 1183Q416 1357 559 1442T897 1517Q1010 1511 1088 1471T1214 1370T1279 1235T1287 1086Q1278 1015 1240 950T1150 827T1043 716T943 621Q882 561 818 499T695 381T589 278T514 200H1156L1121 0H124Z" />
<glyph unicode="3" glyph-name="three" horiz-adv-x="1300" d="M440 938Q473 959 519 987T619 1050T727 1122T835 1202T931 1287T1005 1374L732 1300H401L457 1500H1286L1255 1327Q1234 1297 1206 1261T1143 1189T1069 1117T989 1052L818 969Q908 973 984 947T1115
868T1197 741T1216 573Q1206 470 1160 388T1039 242T866 133T653 58T414 14T162 0L197 200Q283 200 367 211T527 245T668 298T781 370T857 459T886 563Q887 621 866 661T807 725T720 759T616 770Q601 770 572 769T512 766T452 763T409 760L440 938Z" />
<glyph unicode="4" glyph-name="four" horiz-adv-x="1300" d="M1190 300H1012L960 0H652L704 300H114L150 500L825 1525L1125 1492L669 763L449 500H740L792 799L1096 772L1048 500H1247L1190 300Z" />
<glyph unicode="5" glyph-name="five" horiz-adv-x="1300" d="M675 1046Q700 1052 729 1055T793 1059Q891 1059 971 1028T1106 940T1186 803T1200 626Q1187 524 1138 438T1013 283T836 160T623 72T387 18T142 0L181 226Q257 227 337 240T494 276T639 331T760 405T843
497T879 606Q882 649 874 686T847 751T798 798T725 822Q687 827 657 824T601 811T551 788T500 759H288L419 1500H1272L1237 1300H720L675 1046Z" />
<glyph unicode="6" glyph-name="six" horiz-adv-x="1300" d="M1218 1280Q1207 1287 1193 1291T1165 1296T1137 1298T1111 1300Q1055 1304 998 1290T887 1245T782 1169T689 1067T614 943T562 800L752 945Q780 950 806 952T855 956Q943 962 1021 939T1158 862T1246
724T1268 525Q1259 414 1206 313T1066 137T869 19T634 -17Q526 -11 451 23T327 109T250 228T211 364T200 502T207 627Q220 746 262 860T371 1076T524 1261T712 1405T926 1494T1158 1517Q1176 1515 1209 1514T1291 1498L1218 1280ZM806 756Q770 761 732 752T658
721T587 669T526 601Q521 575 518 554T512 513T510 474T514 434Q521 396 533 356T565 283T612 227T675 200Q730 194 777 221T860 296T916 401T942 516Q949 619 913 682T806 756Z" />
<glyph unicode="7" glyph-name="seven" horiz-adv-x="1300" d="M416 1500H1410L1382 1339Q1368 1263 1303 1176T1140 976Q1075 901 1013 825T899 671T807 511T748 346Q740 310 730 266T711 175T692 84T676 0H352Q358 32 368 86T392 200T420 318T449 418Q482 517
528 607T629 781T746 940T875 1086Q925 1139 959 1189T1012 1272H376L416 1500Z" />
<glyph unicode="8" glyph-name="eight" horiz-adv-x="1300" d="M883 1517Q984 1509 1062 1482T1191 1408T1265 1293T1280 1134Q1275 1084 1250 1038T1185 954T1099 888T1005 844Q1048 827 1094 787T1177 691T1235 567T1249 427Q1241 345 1211 279T1135 163T1028
76T901 18T762 -13T619 -17Q516 -11 430 18T284 104T193 243T172 441Q178 513 205 574T280 686T390 777T532 848Q496 878 464 908T409 973T374 1044T366 1124Q372 1193 398 1250T463 1353T553 1430T658 1483T771 1512T883 1517ZM936 422Q938 476 922 520T878 600T811
662T732 711Q682 693 637 666T558 603T502 522T480 421Q479 372 492 333T530 267T586 222T658 200Q704 194 752 208T841 252T907 325T936 422ZM678 1156Q677 1121 689 1092T722 1039T766 996T812 964Q890 1002 934 1047T977 1152Q976 1188 968 1214T944 1257T909
1284T863 1300Q828 1307 796 1297T737 1266T695 1215T678 1156Z" />
<glyph unicode="9" glyph-name="nine" horiz-adv-x="1300" d="M322 199Q441 199 549 240T742 350T884 510T955 700L750 548Q734 546 717 545T683 544Q585 547 504 580T367 674T283 821T261 1017Q268 1129 319 1224T454 1388T645 1491T877 1517Q982 1509 1056 1475T1180
1388T1258 1269T1298 1134T1310 998T1304 873Q1291 755 1252 646T1151 440T1005 263T816 122T589 26T327 -17L322 199ZM731 761Q767 755 807 768T883 807T951 870T1002 945Q1015 1009 1009 1071T981 1182T925 1263T846 1300Q795 1306 747 1286T662 1228T603 1140T581
1034Q582 981 589 935T612 852T658 792T731 761Z" />
<glyph unicode=":" glyph-name="colon" horiz-adv-x="500" d="M95 171Q98 209 118 244T168 306T236 346T311 356Q387 348 428 298T464 171Q462 132 442 97T392 36T323 -5T248 -17Q209 -14 179 1T130 42T101 101T95 171ZM190 714Q193 752 213 787T263 849T331 889T406
899Q482 891 523 841T559 714Q557 675 537 640T487 579T418 538T343 526Q304 529 274 544T225 585T196 644T190 714Z" />
<glyph unicode=";" glyph-name="semicolon" horiz-adv-x="500" d="M190 714Q193 752 213 787T263 849T331 889T406 899Q482 891 523 841T559 714Q557 675 537 640T487 579T418 538T343 526Q304 529 274 544T225 585T196 644T190 714ZM84 169Q85 208 103 244T153
307T224 348T311 356Q355 351 385 333T435 286T462 223T469 148Q467 98 442 35T376 -92T282 -212T168 -303L26 -238Q92 -180 122 -124T164 0Q128 26 105 64T84 169Z" />
<glyph unicode="&lt;" glyph-name="less" horiz-adv-x="1300" d="M1362 1277L1314 1009L585 654L1190 302L1142 34L226 545L265 770L1362 1277Z" />
<glyph unicode="=" glyph-name="equal" horiz-adv-x="1000" d="M240 800H1040L1001 581H201L240 800ZM169 400H969L930 181H130L169 400Z" />
<glyph unicode="&gt;" glyph-name="greater" horiz-adv-x="1300" d="M1271 770L1232 545L134 34L182 302L911 654L306 1009L354 1278L1271 770Z" />
<glyph unicode="?" glyph-name="question" horiz-adv-x="1100" d="M1237 1124Q1233 1062 1207 1011T1141 915T1049 834T942 765Q900 741 865 711T801 642T752 551T720 434L403 399Q427 588 511 722T748 942Q779 959 805 978T852 1020T884 1070T897 1132Q898 1172
886 1199T854 1245T806 1271T748 1283Q718 1286 681 1281T600 1259T509 1207T413 1117L258 1268Q335 1355 408 1405T550 1479T684 1510T813 1517Q899 1517 978 1494T1118 1423T1211 1300T1237 1124ZM404 137Q406 167 422 195T462 245T517 277T577 285Q637 278 670
238T699 137Q697 106 681 78T641 28T586 -4T526 -14Q495 -12 471 1T432 34T409 80T404 137Z" />
<glyph unicode="@" glyph-name="at" horiz-adv-x="2000" d="M1251 885Q1231 888 1214 890T1190 893Q1113 896 1058 867T965 787T906 666T874 519Q866 458 867 405T879 310T907 242T952 209Q985 201 1016 209T1073 234T1121 277T1156 329L1251 885ZM1463 301Q1459
274 1454 251T1448 208T1454 177T1481 159Q1495 156 1517 181T1562 255T1608 372T1647 523T1671 698T1672 888Q1663 1012 1625 1090T1528 1213T1396 1276T1246 1300Q1137 1307 1044 1282T872 1208T732 1086T625 928T553 742T516 539Q502 377 514 250T576 31T718
-116T957 -189Q1007 -195 1053 -190T1140 -174T1213 -149T1268 -120L1337 -321Q1289 -344 1241 -363T1142 -396T1039 -415T930 -420Q545 -405 366 -168T221 527Q231 661 271 789T377 1030T535 1237T739 1396T984 1494T1266 1517Q1416 1507 1533 1456T1733 1321T1866
1125T1932 880T1930 601T1858 299Q1831 219 1787 160T1688 62T1572 3T1447 -17Q1406 -17 1364 -9T1282 19T1212 74T1162 162L1020 -19Q1009 -21 991 -25T936 -25Q823 -10 759 41T663 167T627 336T626 530Q630 603 646 674T695 811T774 933T887 1029T1036 1093T1224
1117Q1285 1116 1347 1108Q1401 1101 1464 1086T1585 1043L1463 301Z" />
<glyph unicode="A" glyph-name="A" horiz-adv-x="1300" d="M20 0L644 1284L716 1494L1071 1525L1282 0H955L914 427H522L334 0H20ZM882 1361L764 990L619 646H893L869 990L882 1361Z" />
<glyph unicode="B" glyph-name="B" horiz-adv-x="1300" d="M671 1130L630 900H659Q715 900 767 910T862 947T931 1018T965 1128Q970 1178 953 1212T904 1266T833 1296T751 1305Q737 1305 719 1304T685 1301L671 1130ZM136 0L358 1262L365 1481Q408 1487 457 1492T556
1500T649 1506T726 1509Q838 1512 941 1495T1121 1436T1241 1323T1273 1148Q1267 1084 1243 1033T1182 942T1101 873T1008 826Q1061 806 1108 774T1190 697T1240 598T1248 475Q1231 342 1170 252T1018 105T816 25T586 0H136ZM512 228H569Q656 228 719 240T826 279T893
352T926 465Q933 527 918 570T869 641T790 680T689 693H594L512 228Z" />
<glyph unicode="C" glyph-name="C" horiz-adv-x="1200" d="M1167 133Q1057 42 938 7T685 -17Q534 -4 430 58T263 222T179 463T174 769Q184 871 214 967T293 1148T411 1303T565 1423T754 1497T976 1517Q1040 1514 1100 1502T1215 1469T1315 1417T1397 1344L1219
1170Q1180 1201 1146 1222T1081 1255T1017 1273T950 1280Q856 1282 779 1243T646 1134T554 971T510 772Q504 710 504 647T510 525T534 412T579 319T650 252T750 221Q819 215 902 239T1082 328L1167 133Z" />
<glyph unicode="D" glyph-name="D" horiz-adv-x="1300" d="M375 1493Q424 1498 477 1501T582 1506T678 1509T757 1510Q910 1510 1038 1472T1253 1349T1380 1131T1397 807Q1379 659 1336 542T1228 335T1081 182T903 78T701 19T483 0H146L368 1262L375 1493ZM680
1127L522 230Q624 232 701 256T833 322T927 417T990 531T1031 654T1056 778Q1075 892 1070 986T1025 1147T909 1252T710 1289H699Q694 1289 688 1288L680 1127Z" />
<glyph unicode="E" glyph-name="E" horiz-adv-x="1200" d="M1127 228L1060 0H118L175 231L357 1263L364 1500H1314L1274 1272H680L670 1134L632 916H1145L1107 703H594L534 360L503 228H1127Z" />
<glyph unicode="F" glyph-name="F" horiz-adv-x="1100" d="M470 0H134L356 1263L363 1500H1350L1283 1272H679L669 1134L631 916H1144L1106 703H593L470 0Z" />
<glyph unicode="G" glyph-name="G" horiz-adv-x="1300" d="M1255 221Q1207 168 1149 121T1019 41T865 -8T685 -17Q531 -5 426 58T258 225T176 467T174 769Q185 869 217 965T302 1146T425 1301T580 1421T766 1496T977 1517Q1041 1514 1101 1502T1215 1469T1315
1417T1398 1344L1220 1170Q1148 1231 1084 1256T950 1280Q856 1279 779 1240T646 1132T555 971T511 772Q506 709 505 645T511 522T534 410T578 317T649 252T751 221Q776 219 803 224T857 240T907 263T949 289L1007 616L716 635L753 840H1365L1255 221Z" />
<glyph unicode="H" glyph-name="H" horiz-adv-x="1400" d="M904 0L1025 688H579L458 0H126L348 1263L358 1494L727 1526L619 916H1065L1167 1496L1504 1527L1235 0H904Z" />
<glyph unicode="I" glyph-name="I" horiz-adv-x="600" d="M126 0L348 1263L356 1494L731 1525L463 0H126Z" />
<glyph unicode="J" glyph-name="J" horiz-adv-x="900" d="M462 1493L1016 1523L826 446Q805 329 760 239T647 90T493 3T303 -17Q253 -13 205 1T115 37T38 86T-20 145L161 338Q174 322 190 305T226 275T268 253T318 244Q348 244 374 253T423 286T462 347T490 444L611
1132L649 1266L449 1254L462 1493Z" />
<glyph unicode="K" glyph-name="K" horiz-adv-x="1200" d="M136 0L358 1263L366 1494L740 1525L654 1035L1127 1500H1495L890 900L603 802L848 716L1252 0H872L567 540L472 0H136Z" />
<glyph unicode="L" glyph-name="L" horiz-adv-x="1100" d="M503 228H1122L1055 0H112L175 232L357 1263L364 1494L739 1525L534 360L503 228Z" />
<glyph unicode="M" glyph-name="M" horiz-adv-x="1800" d="M1062 799L1513 1495L1869 1526L1600 0H1282L1379 551L1513 1060L1509 1061L1260 581L949 123H766L630 536L553 1060L547 1059L499 498L412 0H100L322 1263L333 1494L697 1524L914 801L935 498L1062 799Z" />
<glyph unicode="N" glyph-name="N" horiz-adv-x="1500" d="M1577 1527L1308 0H1007L712 700L624 1038L617 1037L594 691L473 0H146L368 1263L376 1494L722 1524L1021 810L1107 449L1113 450L1129 816L1249 1493L1577 1527Z" />
<glyph unicode="O" glyph-name="O" horiz-adv-x="1600" d="M777 -17Q624 -11 509 46T321 204T219 442T209 750Q221 861 257 963T349 1153T479 1311T642 1430T833 1502T1047 1517Q1206 1506 1321 1450T1507 1295T1605 1060T1614 750Q1596 581 1528 438T1350 191T1095
32T777 -17ZM1275 721Q1284 830 1280 925T1247 1094T1159 1214T997 1269Q903 1277 825 1238T690 1130T596 969T549 783Q537 677 541 582T574 414T664 292T825 231Q887 223 942 239T1046 288T1134 369T1203 475T1251 595T1275 721Z" />
<glyph unicode="P" glyph-name="P" horiz-adv-x="1200" d="M470 0H134L356 1262V1478Q402 1485 457 1491T567 1502T672 1508T762 1511Q835 1511 906 1502T1042 1473T1159 1420T1250 1340T1306 1230T1317 1086Q1305 948 1245 855T1087 705T858 622T574 593L470
0ZM669 1130L611 804Q693 806 759 822T874 870T950 954T983 1078Q987 1139 968 1182T916 1253T844 1292T769 1305Q752 1305 729 1304T683 1300L669 1130Z" />
<glyph unicode="Q" glyph-name="Q" horiz-adv-x="1600" d="M957 2Q914 -7 869 -14T777 -17Q611 -4 496 54T311 211T217 445T209 750Q220 861 255 963T346 1154T476 1313T640 1432T832 1502T1047 1517Q1214 1504 1329 1446T1514 1290T1607 1055T1614 750Q1605 655
1578 566T1508 399T1409 258T1285 152Q1298 132 1312 118T1351 93T1413 79T1511 75L1384 -145H1352Q1289 -142 1242 -128T1160 -93T1101 -43T1057 15T1022 76T990 135L957 2ZM1208 506Q1232 557 1249 610T1275 721Q1288 826 1285 921T1251 1092T1160 1214T997 1269Q932
1274 876 1258T773 1208T687 1129T620 1027T574 909T549 783Q537 668 541 570T574 399T664 282T825 231H934Q921 249 904 264T864 288T810 301T739 300L849 500Q923 505 975 494T1064 457T1126 395T1173 311L1208 506Z" />
<glyph unicode="R" glyph-name="R" horiz-adv-x="1300" d="M619 564Q610 578 597 580T575 583L473 0H136L358 1262L359 1482Q404 1487 460 1492T573 1502T684 1508T783 1511Q908 1511 1010 1484T1183 1403T1290 1269T1319 1081Q1314 1007 1292 947T1233 839T1150
755T1050 691T940 646T826 617L960 584L1294 0H926L619 564ZM672 1130L614 802H678Q746 802 801 820T897 872T960 955T987 1066Q991 1137 972 1183T920 1257T847 1294T771 1305H718Q709 1305 702 1305T685 1303L672 1130Z" />
<glyph unicode="S" glyph-name="S" horiz-adv-x="1100" d="M1059 1178Q1021 1205 989 1224T926 1257T867 1276T808 1284Q771 1285 732 1279T660 1255T607 1206T586 1125Q586 1083 601 1054T642 1000T702 956T775 911Q813 887 854 863T935 809T1009 744T1068 666T1105
569T1110 448Q1102 366 1071 298T991 177T882 86T752 23T612 -12T472 -17Q345 -9 237 26T50 121L228 348Q255 326 284 307T347 271T422 243T512 226Q556 221 604 231T692 267T759 333T786 430Q786 485 765 526T711 600T636 656T555 703Q490 738 433 774T333 856T269
959T250 1097Q253 1165 280 1224T349 1331T448 1416T567 1477T696 1511T825 1517Q942 1509 1043 1474T1243 1369L1059 1178Z" />
<glyph unicode="T" glyph-name="T" horiz-adv-x="1200" d="M424 0L648 1272H254L294 1500H1414L1374 1272H984L760 0H424Z" />
<glyph unicode="U" glyph-name="U" horiz-adv-x="1400" d="M1499 1500L1329 534Q1307 390 1248 282T1100 104T901 2T664 -17Q531 -5 438 43T290 169T220 351T228 582L348 1263L356 1494L727 1526L557 564Q540 492 544 433T570 328T628 256T714 221Q768 213 815
230T898 286T959 383T994 516L1168 1500H1499Z" />
<glyph unicode="V" glyph-name="V" horiz-adv-x="1300" d="M1545 1500L906 204L837 -25L472 5L258 1492L576 1526L683 700L699 260L846 700L1235 1500H1545Z" />
<glyph unicode="W" glyph-name="W" horiz-adv-x="1900" d="M1066 500L1104 970L940 500L730 0H398L290 1492L613 1526L661 860L657 379H661L788 865L1058 1500H1322L1368 864L1363 369H1367L1494 862L1766 1500H2075L1438 0H1103L1066 500Z" />
<glyph unicode="X" glyph-name="X" horiz-adv-x="1300" d="M766 375L712 592L620 400L310 0H-24L595 797L299 1492L642 1524L780 1198L834 962L910 1154L1177 1500H1513L949 775L1278 0H924L766 375Z" />
<glyph unicode="Y" glyph-name="Y" horiz-adv-x="1200" d="M711 1143L753 773L876 1143L1121 1500H1451L868 650L754 0H418L532 650L252 1492L586 1525L711 1143Z" />
<glyph unicode="Z" glyph-name="Z" horiz-adv-x="1200" d="M1160 228L1147 0H39L20 86L840 1187L1039 1310L822 1272H319L332 1500H1350L1381 1441L549 314L332 190L553 228H1160Z" />
<glyph unicode="[" glyph-name="bracketleft" horiz-adv-x="900" d="M300 1287L315 1519H1002L964 1301H614L603 1153L394 -32L353 -180H703L664 -399H-22L44 -167L300 1287Z" />
<glyph unicode="\" glyph-name="backslash" horiz-adv-x="1100" d="M286 1595H615L1023 -95H683L286 1595Z" />
<glyph unicode="]" glyph-name="bracketright" horiz-adv-x="1000" d="M697 -167L682 -399H-4L34 -180H383L394 -32L603 1153L644 1301H295L333 1519H1020L953 1287L697 -167Z" />
<glyph unicode="^" glyph-name="asciicircum" horiz-adv-x="1500" d="M1610 866H1267L958 1180L554 868H192L897 1495L1111 1522L1610 866Z" />
<glyph unicode="_" glyph-name="underscore" horiz-adv-x="1100" d="M-35 -200H1064L1019 -455H-80L-35 -200Z" />
<glyph unicode="`" glyph-name="grave" horiz-adv-x="1100" d="M915 1200H657L444 1491L797 1525L915 1200Z" />
<glyph unicode="a" glyph-name="a" horiz-adv-x="1100" d="M839 885Q819 888 802 890T778 893Q703 893 646 862T547 779T482 658T449 510Q443 449 445 395T459 299T490 233T540 209Q574 209 604 220T661 250T708 289T744 329L839 885ZM483 -16Q406 -15 349 8T252
72T187 165T151 280T139 409T147 542Q156 614 180 685T243 820T337 938T462 1032T620 1094T812 1117Q873 1116 935 1108Q989 1101 1052 1086T1173 1043L1030 209L1016 0H694L722 162L567 -10Q556 -12 538 -14T483 -16Z" />
<glyph unicode="b" glyph-name="b" horiz-adv-x="1200" d="M494 212Q523 207 555 204T617 200Q686 200 735 236T819 330T872 458T897 598Q905 681 902 736T887 826T855 877T806 900Q776 906 749 902T697 888T648 861T602 826L494 212ZM389 1398L403 1601L744 1632L628
974L747 1096Q778 1104 811 1110T872 1117Q953 1117 1021 1083T1137 983T1204 818T1210 593Q1194 455 1140 341T1003 145T809 22T570 -16Q506 -13 444 -7T326 9T225 30T152 54L389 1398Z" />
<glyph unicode="c" glyph-name="c" horiz-adv-x="1000" d="M930 814Q907 841 883 857T835 882T786 894T737 900Q680 904 632 877T548 802T491 693T465 563Q461 496 462 434T478 323T527 242T624 200Q650 196 684 203T752 223T817 253T871 288L949 93Q913 67 870
45T778 8T677 -14T573 -17Q440 -6 354 44T220 173T157 355T151 575Q159 684 207 785T336 964T528 1083T777 1117Q831 1113 877 1104T964 1078T1040 1032T1107 961L930 814Z" />
<glyph unicode="d" glyph-name="d" horiz-adv-x="1200" d="M904 900H835Q761 900 704 868T606 783T541 660T509 515Q494 366 519 289T614 200Q650 195 679 203T731 228T771 268T801 316L904 900ZM746 0L774 162L619 -10Q611 -12 604 -13T587 -16T564 -18T529 -17Q439
-11 371 29T259 140T200 308T200 528Q215 645 266 749T401 931T603 1054T869 1100H939L1033 1632L1341 1600L1095 209L1081 0H746Z" />
<glyph unicode="e" glyph-name="e" horiz-adv-x="1100" d="M1000 137Q962 100 919 71T824 21T710 -9T573 -16Q433 -10 343 39T202 165T137 342T134 547Q142 614 163 684T221 820T308 941T424 1039T571 1101T749 1116Q863 1109 940 1066T1061 955T1116 804T1110
632Q1103 600 1091 570T1065 517Q1050 490 1034 466H419Q412 404 425 355T468 271T540 218T631 200Q674 200 709 209T771 231T820 260T857 287L1000 137ZM853 672Q871 713 870 753T851 824T802 876T725 900Q678 903 643 892T582 859T538 811T507 756L398 653L574
671L853 672Z" />
<glyph unicode="f" glyph-name="f" horiz-adv-x="800" d="M319 876H179L218 1100H358L383 1242Q402 1339 435 1412T521 1533T646 1602T817 1617Q869 1614 914 1602T997 1573T1063 1537T1114 1501L950 1341Q921 1361 887 1374T809 1393Q783 1396 762 1390T726 1364T699
1313T679 1233L655 1100H939L873 876H630L476 0Q456 -112 428 -195T353 -333T232 -411T46 -428Q9 -426 -23 -420T-80 -406T-124 -390T-152 -376L-62 -179L-59 -180Q-40 -188 -17 -196T33 -202Q61 -199 82 -184T118 -143T144 -80T165 0L319 876Z" />
<glyph unicode="g" glyph-name="g" horiz-adv-x="1200" d="M745 16Q710 2 661 -9T553 -17Q452 -11 379 34T261 153T198 327T191 545Q202 663 245 767T365 948T548 1071T795 1117Q813 1117 825 1117T847 1114L910 958L940 1126L1245 1093L1045 -41Q1025 -153 975
-244T848 -399T670 -493T447 -517Q381 -513 328 -500T232 -465T156 -417T96 -359L270 -192Q283 -206 306 -222T358 -254T420 -280T488 -293Q530 -296 571 -279T647 -228T706 -143T738 -27L745 16ZM886 820Q863 852 830 876T752 900Q686 900 642 868T568 785T524
667T501 534Q486 386 510 299T606 200Q665 191 709 216T792 287L886 820Z" />
<glyph unicode="h" glyph-name="h" horiz-adv-x="1200" d="M445 0H134L377 1379L394 1600L732 1631L612 952L760 1107Q788 1112 815 1114T868 1117Q945 1117 1005 1087T1105 1004T1158 877T1156 718L1030 0H719L847 726Q860 805 838 847T777 900Q735 912 684 891T589
818L445 0Z" />
<glyph unicode="i" glyph-name="i" horiz-adv-x="600" d="M442 0H136L320 1049L632 1081L442 0ZM394 1500H712L671 1269H353L394 1500Z" />
<glyph unicode="j" glyph-name="j" horiz-adv-x="600" d="M-108 -268L-105 -269Q-86 -277 -63 -284T-13 -291Q17 -291 39 -277T76 -238T102 -176T121 -97L323 1049L636 1081L430 -89Q410 -201 382 -284T307 -422T186 -500T0 -517Q-37 -515 -69 -509T-126 -495T-170
-479T-198 -465L-108 -268ZM397 1500H715L674 1269H356L397 1500Z" />
<glyph unicode="k" glyph-name="k" horiz-adv-x="1100" d="M144 0L390 1397L404 1600L722 1631L570 769L893 1100H1234L802 700L585 627L763 564L1142 0H794L515 458L435 0H144Z" />
<glyph unicode="l" glyph-name="l" horiz-adv-x="700" d="M388 1379L406 1600L744 1631L528 403Q522 371 521 339T524 280T543 234T584 209Q597 206 612 208T641 214T667 224T687 232L709 35Q666 9 616 -6T491 -17Q390 -11 329 24T238 116T205 248T217 411L388 1379Z" />
<glyph unicode="m" glyph-name="m" horiz-adv-x="1800" d="M469 0H156L348 1093L667 1126L634 937L750 1088Q773 1096 799 1102Q821 1107 847 1112T900 1117Q920 1117 949 1113T1011 1099T1081 1070T1153 1023Q1183 1039 1220 1056T1297 1086T1379 1108T1462 1117Q1551
1117 1617 1084T1724 998T1778 876T1773 736L1644 0H1331L1464 757Q1471 786 1467 811T1449 856T1416 886T1373 900Q1336 903 1291 885T1196 814Q1194 790 1191 773T1184 727L1056 0H743L876 757Q885 785 882 809T867 853T838 884T801 900Q756 908 710 888T612
816L469 0Z" />
<glyph unicode="n" glyph-name="n" horiz-adv-x="1200" d="M653 1126L620 937L736 1088Q770 1099 805 1107T875 1117Q929 1121 967 1118T1036 1103T1090 1072T1139 1024Q1166 993 1176 954T1186 874T1181 795T1170 727L1042 0H729L862 757Q873 821 850 855T787
900Q771 904 749 902T700 889T648 860T598 816L455 0H142L334 1093L653 1126Z" />
<glyph unicode="o" glyph-name="o" horiz-adv-x="1200" d="M600 -17Q481 -7 395 36T256 153T183 327T173 553Q184 676 237 783T373 968T566 1086T799 1117Q918 1107 1004 1064T1143 948T1218 776T1228 553Q1221 471 1194 395T1125 253T1026 134T902 45T758 -7T600
-17ZM911 528Q918 598 918 661T902 774T852 856T757 897Q706 904 660 878T577 804T518 695T489 571Q483 500 484 437T501 324T550 242T641 203Q696 196 742 223T824 297T882 405T911 528Z" />
<glyph unicode="p" glyph-name="p" horiz-adv-x="1200" d="M511 200H589Q668 200 729 230T834 311T904 430T941 576Q950 649 944 707T920 806T877 870T821 900Q794 905 767 900T715 882T665 851T619 811L511 200ZM76 -500L357 1093L674 1126L642 944L795 1110Q817
1113 839 1115T886 1117Q967 1117 1034 1082T1148 976T1216 803T1224 564Q1212 440 1158 337T1014 158T803 42T537 0H476L387 -500H76Z" />
<glyph unicode="q" glyph-name="q" horiz-adv-x="1200" d="M876 891Q846 895 814 897T752 900Q682 900 632 866T548 778T496 658T470 526Q461 442 464 383T480 285T514 227T563 200Q584 195 609 200T661 218T715 249T769 288L876 891ZM742 136L600 -8Q575 -13
553 -16T507 -17Q420 -11 349 27T231 134T165 301T162 526Q180 664 231 774T362 960T552 1076T794 1117Q839 1117 896 1109T1012 1089T1123 1064T1213 1038L941 -500H630L742 136Z" />
<glyph unicode="r" glyph-name="r" horiz-adv-x="800" d="M940 867Q922 877 907 883T877 894T845 899T804 900Q741 900 680 858T578 736L449 0H136L328 1093L647 1126L606 895L736 1100Q745 1103 757 1106T784 1111T812 1115T840 1117Q895 1117 929 1109T993 1084L940
867Z" />
<glyph unicode="s" glyph-name="s" horiz-adv-x="900" d="M834 822Q765 860 711 876T617 900Q587 906 563 902T520 887T493 859T486 822Q489 787 521 762T599 713T699 662T798 596T874 501T907 364Q908 298 887 243T829 143T741 65T632 12T510 -16T386 -17Q348
-13 300 -3T201 22T105 55T28 96L162 286Q228 249 295 226T435 200Q468 199 499 206T553 231T591 274T604 336Q603 372 584 399T535 450T468 495T391 538T316 585T251 643T208 717T196 813Q202 900 241 961T343 1059T487 1110T658 1117Q702 1113 745 1104T827 1081T900
1052T959 1021L834 822Z" />
<glyph unicode="t" glyph-name="t" horiz-adv-x="800" d="M533 388Q525 355 524 325T527 271T541 231T564 208Q586 198 606 201T642 212Q660 221 676 235L742 72Q700 31 632 5T476 -16Q377 -10 322 23T243 113T220 244T234 410L316 876H166L205 1100H355L387 1279L718
1463L654 1100H944L878 876H619L533 388Z" />
<glyph unicode="u" glyph-name="u" horiz-adv-x="1200" d="M921 1093L1240 1126L1042 0H729L757 163L619 11Q598 2 564 -7T476 -17Q386 -17 328 17T239 107T202 236T210 384L335 1093L654 1126L523 384Q515 352 515 322T524 268T550 225T595 200Q614 195 637 198T684
212T733 239T777 276L921 1093Z" />
<glyph unicode="v" glyph-name="v" horiz-adv-x="1100" d="M585 700L588 300L731 700L929 1093L1243 1129L664 -24L372 5L212 1093L523 1125L585 700Z" />
<glyph unicode="w" glyph-name="w" horiz-adv-x="1500" d="M1095 800L1076 272L1230 800L1352 1094L1653 1124L1144 0H893L870 300L895 820L730 300L610 0H359L250 1093L552 1126L569 800L541 270L705 800L831 1100H1078L1095 800Z" />
<glyph unicode="x" glyph-name="x" horiz-adv-x="1100" d="M644 272L614 474L510 272L295 0H-34L480 585L213 1093L550 1120L652 900L679 699L774 900L948 1096L1299 1124L823 581L1129 0H778L644 272Z" />
<glyph unicode="y" glyph-name="y" horiz-adv-x="1100" d="M588 670L582 190L744 670L980 1095L1297 1124L692 8Q653 -64 620 -127T553 -245T485 -343T410 -417T320 -463T210 -480Q177 -480 140 -470T68 -444T9 -410T-26 -374L127 -194Q142 -207 154 -214T176
-226T197 -231T222 -234Q272 -239 313 -194T404 -47L188 1093L503 1121L588 670Z" />
<glyph unicode="z" glyph-name="z" horiz-adv-x="1000" d="M580 200H953L945 0H55L36 85L555 757L817 935L540 900H266L274 1100H1057L1075 1017L560 339L303 165L580 200Z" />
<glyph unicode="{" glyph-name="braceleft" horiz-adv-x="1298" d="M1225 1260Q1194 1280 1153 1292T1077 1305Q1047 1303 1027 1289T992 1248T969 1185T950 1099L909 864Q895 787 871 733T817 642T754 583T689 550Q713 530 736 495T775 417T798 327T798 238L756
-2Q748 -50 744 -84T744 -143T764 -182T810 -208Q826 -213 847 -211T890 -201T933 -184T974 -163L1037 -348Q1002 -363 969 -378T900 -403T823 -419T729 -420Q628 -413 563 -380T463 -292T421 -164T429 -2L471 238Q487 326 481 379T430 442L296 462L327 640L469
660Q517 671 541 723T582 864L623 1099Q642 1211 674 1293T757 1426T885 1500T1071 1517Q1123 1514 1162 1509T1234 1494T1295 1473T1353 1445L1225 1260Z" />
<glyph unicode="|" glyph-name="bar" horiz-adv-x="400" d="M635 1527L298 -380H-28L302 1493L635 1527Z" />
<glyph unicode="}" glyph-name="braceright" horiz-adv-x="1200" d="M454 1445Q490 1461 523 1474T591 1496T668 1511T762 1517Q860 1517 924 1484T1024 1394T1068 1261T1062 1099L1021 864Q1005 776 1011 723T1062 660L1196 640L1165 462L1023 442Q975 432 951
380T910 238L868 -2Q850 -102 822 -182T743 -317T610 -399T405 -420Q353 -417 316 -412T250 -397T194 -376T138 -348L267 -163Q282 -173 301 -183T339 -201T378 -210T415 -208Q446 -198 467 -183T501 -143T524 -85T541 -2L583 238Q596 311 620 364T675 455T739
515T802 550Q779 570 757 606T719 687T695 778T694 864L735 1099Q744 1147 749 1182T751 1242T732 1282T682 1305Q665 1309 644 1307T602 1297T558 1280T518 1260L454 1445Z" />
<glyph unicode="~" glyph-name="asciitilde" horiz-adv-x="1500" d="M204 441Q220 519 257 594T354 727T496 816T687 835Q741 829 780 819T850 795T903 768T948 741T993 718T1046 703Q1115 692 1161 719T1231 818L1503 802Q1488 720 1453 641T1359 504T1218 415T1028
400Q953 411 901 432T809 475T737 514T670 532Q643 533 619 530T573 517T533 485T502 430L204 441Z" />
<glyph unicode="&#xa0;" glyph-name="nbspace" horiz-adv-x="700" />
<glyph unicode="&#xa1;" glyph-name="exclamdown" horiz-adv-x="700" d="M130 -403L316 653L622 688L430 -403H130ZM657 960Q655 930 639 902T599 852T544 820T484 812Q424 819 391 859T362 960Q364 991 380 1019T420 1068T475 1101T535 1111Q566 1109 590 1096T629
1063T652 1017T657 960Z" />
<glyph unicode="&#xa2;" glyph-name="cent" horiz-adv-x="1000" d="M466 563Q463 516 462 472T465 389T481 317T513 258L620 869Q587 848 560 816T513 744T481 657T466 563ZM931 814Q912 836 893 850T853 875L738 217Q776 231 812 249T872 288L950 93Q899 57 834
29T697 -12L666 -190H386L422 14Q336 44 280 98T193 226T153 387T152 575Q159 666 194 753T288 913T430 1036T615 1107L649 1302L936 1340L894 1101Q959 1086 1011 1054T1108 961L931 814Z" />
<glyph unicode="&#xa3;" glyph-name="sterling" horiz-adv-x="1100" d="M678 216H999V0H50L79 216H212Q214 218 217 224T225 249Q233 277 254 378T302 665H174V883H333L371 1150Q383 1229 408 1296T477 1413T587 1489T746 1517Q800 1517 842 1511T922 1490T993
1452T1066 1395L936 1228Q886 1273 853 1288T790 1303Q767 1303 751 1290T723 1252T704 1193T690 1116L657 883H852L825 665H627Q619 601 614 556T602 475T589 405T572 331L430 157L678 216Z" />
<glyph unicode="&#xa4;" glyph-name="currency" horiz-adv-x="1200" d="M1147 249L940 72L803 238Q764 217 720 206T629 195T538 204T452 238L258 72L112 249L291 400Q266 443 258 493T257 595T291 694T358 779L232 930L440 1109L577 942Q610 958 654 968T746
979T841 973T928 942L1124 1109L1267 930L1090 779Q1111 736 1117 683T1115 576T1083 477T1023 400L1147 249ZM526 590Q523 543 533 513T563 463T608 434T660 417Q686 411 719 419T781 450T832 507T855 590Q857 639 847 670T817 719T773 747T721 761Q695 765 663
758T601 729T551 674T526 590Z" />
<glyph unicode="&#xa5;" glyph-name="yen" horiz-adv-x="1200" d="M203 589H522L533 650L516 700H223L256 889H453L253 1492L587 1525L712 1143L754 773L877 1143L1122 1500H1452L1033 889H1256L1223 700H903L869 650L858 589H1203L1170 400H825L755 0H419L489
400H170L203 589Z" />
<glyph unicode="&#xa6;" glyph-name="brokenbar" horiz-adv-x="400" d="M634 1527L488 700H161L301 1493L634 1527ZM428 362L294 -400H-32L101 362H428Z" />
<glyph unicode="&#xa7;" glyph-name="section" horiz-adv-x="1000" d="M998 1249Q974 1261 952 1273T905 1296T849 1312T779 1318Q738 1318 705 1311T649 1287T612 1242T599 1174Q599 1132 610 1102T640 1048T686 1003T745 958Q795 920 842 880T925 789T980 675T994
527Q991 479 974 434T925 351T851 282T751 234Q814 176 845 107T874 -46Q871 -130 831 -198T724 -313T566 -383T370 -400Q323 -397 280 -392T195 -375T114 -346T34 -299L170 -129Q207 -152 238 -166T295 -187T344 -197T388 -200Q419 -200 451 -192T510 -167T553
-122T568 -54Q566 -11 555 20T524 75T478 120T422 163Q371 202 325 241T245 330T192 443T173 593Q173 644 195 692T251 780T329 847T416 885Q352 945 321 1013T293 1166Q296 1247 333 1314T436 1429T594 1499T797 1517Q843 1514 886 1509T970 1494T1051 1465T1133
1419L998 1249ZM569 747L555 737Q534 723 517 710T488 680T470 643T463 595Q463 559 474 528T503 471T541 424T579 387L598 372L612 383Q624 392 639 404T669 434T692 473T704 525Q706 558 697 587T672 641T635 689T589 731L569 747Z" />
<glyph unicode="&#xa8;" glyph-name="dieresis" horiz-adv-x="1100" d="M487 1500H763L716 1234H440L487 1500ZM887 1500H1163L1116 1234H840L887 1500Z" />
<glyph unicode="&#xa9;" glyph-name="copyright" horiz-adv-x="1100" d="M816 1517Q912 1511 986 1475T1110 1378T1184 1233T1203 1047Q1198 948 1148 859T1019 705T844 604T650 577Q548 586 473 623T348 720T278 864T263 1047Q269 1146 317 1234T442 1387T615
1487T816 1517ZM794 1395Q717 1400 645 1374T517 1299T425 1185T384 1046Q379 972 395 911T447 804T539 732T670 698Q742 692 813 718T943 793T1039 907T1081 1046Q1084 1122 1067 1184T1012 1291T920 1363T794 1395ZM874 1165Q863 1177 851 1184T827 1196T803
1201T778 1204Q749 1206 725 1194T683 1160T655 1111T642 1052Q640 1022 640 994T648 944T673 908T721 889Q734 887 751 890T785 899T818 913T845 929L884 841Q866 829 844 819T798 803T748 793T696 791Q629 796 586 818T519 876T488 958T485 1058Q489 1107 513
1152T577 1232T673 1286T798 1302Q825 1300 848 1296T891 1284T929 1263T963 1231L874 1165Z" />
<glyph unicode="&#xaa;" glyph-name="ordfeminine" horiz-adv-x="800" d="M483 923Q444 923 416 935T367 967T335 1013T317 1071T311 1135T315 1202Q319 1238 331 1273T363 1341T410 1400T472 1447T551 1478T647 1489Q678 1489 709 1485Q736 1481 767 1474T828
1452L756 1035L749 931H588L602 1012L525 926L510 923Q501 922 483 923ZM211 800H671L644 650H184L211 800ZM661 1373Q651 1375 643 1376T630 1377Q593 1377 564 1362T515 1320T482 1260T466 1186Q463 1155 464 1128T470 1080T486 1047T511 1035Q528 1035 543 1041T572
1056T595 1075T613 1095L661 1373Z" />
<glyph unicode="&#xab;" glyph-name="guillemotleft" horiz-adv-x="1400" d="M877 1106L926 880L542 583L460 550L530 517L812 224L676 -13L207 476L233 620L877 1106ZM1377 1106L1426 880L1042 583L960 550L1030 517L1312 224L1176 -13L707 476L733 620L1377 1106Z" />
<glyph unicode="&#xac;" glyph-name="logicalnot" horiz-adv-x="1700" d="M1605 827L1544 586L1486 258H1154L1189 459L1226 600H276L316 827H1605Z" />
<glyph unicode="&#xad;" glyph-name="sfthyphen" horiz-adv-x="0" />
<glyph unicode="&#xae;" glyph-name="registered" horiz-adv-x="1100" d="M816 1517Q912 1511 986 1475T1110 1378T1184 1233T1203 1047Q1198 948 1148 859T1019 705T844 604T650 577Q548 586 473 623T348 720T278 864T263 1047Q269 1146 317 1234T442 1387T615
1487T816 1517ZM794 1395Q717 1400 645 1374T517 1299T425 1185T384 1046Q379 972 395 911T447 804T539 732T670 698Q742 692 813 718T943 793T1039 907T1081 1046Q1084 1122 1067 1184T1012 1291T920 1363T794 1395ZM705 987Q703 991 699 992T691 993L659 800H551L622
1218V1291Q637 1292 654 1294T690 1297T726 1299T758 1300Q798 1300 830 1291T886 1265T920 1220T929 1158Q928 1133 921 1113T902 1078T875 1050T843 1029T808 1014T772 1004L815 993L921 800H804L705 987ZM722 1174L704 1065H724Q746 1065 764 1071T794 1088T814
1116T823 1153Q824 1176 818 1191T802 1216T779 1228T754 1232H732Q730 1232 727 1231L722 1174Z" />
<glyph unicode="&#xaf;" glyph-name="overscore" horiz-adv-x="1100" d="M464 1500H1164L1126 1282H426L464 1500Z" />
<glyph unicode="&#xb0;" glyph-name="degree" horiz-adv-x="600" d="M566 1517Q625 1511 673 1489T754 1432T804 1351T814 1247Q808 1192 777 1140T698 1049T591 990T471 977Q342 994 280 1065T222 1247Q224 1304 255 1355T335 1445T444 1504T566 1517ZM540 1349Q516
1352 493 1344T450 1322T420 1288T407 1246Q405 1203 428 1176T503 1142Q526 1139 548 1147T589 1170T620 1205T634 1246Q639 1290 612 1317T540 1349Z" />
<glyph unicode="&#xb1;" glyph-name="plusminus" horiz-adv-x="1200" d="M303 863H648L721 1212H922L849 863H1194L1160 700H815L747 374H546L614 700H270L303 863ZM264 299H1164V159H264V299Z" />
<glyph unicode="&#xb2;" glyph-name="twosuperior" horiz-adv-x="600" d="M62 720L79 815Q109 852 149 895T231 978T308 1053T366 1107Q408 1145 431 1168T467 1208T483 1238T493 1268Q497 1283 495 1300T483 1332T458 1357T422 1370Q381 1374 344 1347T277 1268L168
1311Q208 1399 280 1441T449 1478Q506 1475 545 1455T607 1405T639 1338T644 1263Q639 1227 620 1195T576 1133T522 1078T472 1030Q442 1000 410 969T348 910T294 859T257 820H578L561 720H62Z" />
<glyph unicode="&#xb3;" glyph-name="threesuperior" horiz-adv-x="600" d="M219 1189Q244 1205 282 1228T362 1281T441 1342T502 1407L365 1370H200L228 1470H642L627 1383Q606 1353 571 1314T494 1246L408 1204Q453 1206 491 1193T557 1153T597 1090T607 1006Q600
929 553 875T432 787T268 736T80 720L98 820Q162 820 223 833T333 869T411 926T442 1001Q443 1030 432 1050T403 1082T359 1099T307 1105Q299 1105 285 1105T255 1103T225 1101T204 1100L219 1189Z" />
<glyph unicode="&#xb4;" glyph-name="acute" horiz-adv-x="1100" d="M800 1496L1187 1528L837 1200H588L800 1496Z" />
<glyph unicode="&#xb5;" glyph-name="mu" horiz-adv-x="1300" d="M1264 51Q1229 13 1175 -7T1039 -17Q1006 -13 975 5T919 50T880 113T865 190L797 72Q749 18 685 1T542 -17Q522 -17 494 -12T438 1T387 20T353 40L381 -166L322 -500H24L305 1093L609 1125L474
362Q466 329 475 302T504 253T546 217T590 199Q628 191 670 209T747 268L892 1093L1196 1125L1062 365Q1051 321 1051 293T1057 246T1077 217T1106 199Q1124 191 1146 200T1196 223L1264 51Z" />
<glyph unicode="&#xb6;" glyph-name="paragraph" horiz-adv-x="1400" d="M1260 1298H1126L827 -400H568L745 604Q704 612 661 626T579 665T505 724T446 806T412 913T409 1050Q418 1138 446 1206T518 1324T616 1407T735 1461T866 1491T1003 1500H1553L1218 -400H961L1260
1298Z" />
<glyph unicode="&#xb7;" glyph-name="middot" horiz-adv-x="500" d="M95 671Q98 709 118 744T168 806T236 846T311 856Q387 848 428 798T464 671Q462 632 442 597T392 536T323 495T248 483Q209 486 179 501T130 542T101 601T95 671Z" />
<glyph unicode="&#xb8;" glyph-name="cedilla" horiz-adv-x="1100" d="M561 0Q583 -20 599 -46Q613 -69 623 -100T629 -171Q623 -228 592 -274T515 -351T412 -397T300 -407Q241 -402 186 -384T87 -344Q36 -319 -8 -290L134 -131Q163 -149 192 -163Q216 -175 243
-186T293 -200Q324 -205 347 -191T367 -147Q365 -126 356 -103T337 -58T316 -22T299 0H561Z" />
<glyph unicode="&#xb9;" glyph-name="onesuperior" horiz-adv-x="600" d="M351 1160L420 1341L282 1206L234 1169L172 1261L451 1482L563 1466L449 820H570L553 720H152L169 820H291L351 1160Z" />
<glyph unicode="&#xba;" glyph-name="ordmasculine" horiz-adv-x="800" d="M211 800H671L644 650H184L211 800ZM461 922Q402 927 359 949T290 1007T253 1094T248 1207Q253 1269 279 1322T348 1415T444 1474T561 1489Q620 1484 663 1463T733 1405T770 1319T775
1207Q772 1166 759 1128T724 1057T674 998T612 953T540 927T461 922ZM617 1195Q620 1230 620 1261T612 1318T587 1359T540 1379Q514 1383 491 1370T450 1333T420 1279T406 1216Q403 1181 403 1149T412 1093T436 1052T482 1032Q509 1029 532 1042T573 1079T602 1133T617
1195Z" />
<glyph unicode="&#xbb;" glyph-name="guillemotright" horiz-adv-x="1400" d="M886 619L860 476L218 -13L166 224L552 517L631 550L562 582L284 880L413 1106L886 619ZM1386 619L1360 476L718 -13L666 224L1052 517L1131 550L1062 582L784 880L913 1106L1386 619Z" />
<glyph unicode="&#xbc;" glyph-name="onequarter" horiz-adv-x="1500" d="M474 0H289L1064 1500H1240L474 0ZM369 1162L438 1343L300 1208L252 1171L190 1263L469 1484L581 1468L467 822H588L571 722H170L187 822H309L369 1162ZM1424 188H1335L1309 38H1155L1181
188H886L904 288L1242 800L1392 784L1164 419L1054 288H1199L1225 437L1377 424L1353 288H1453L1424 188Z" />
<glyph unicode="&#xbd;" glyph-name="onehalf" horiz-adv-x="1500" d="M474 0H289L1064 1500H1240L474 0ZM369 1162L438 1343L300 1208L252 1171L190 1263L469 1484L581 1468L467 822H588L571 722H170L187 822H309L369 1162ZM910 38L927 133Q957 170 997 213T1079
296T1156 371T1214 425Q1256 463 1279 486T1315 526T1331 556T1341 586Q1345 601 1343 618T1331 650T1306 675T1270 688Q1229 692 1192 665T1125 586L1016 629Q1056 717 1128 759T1297 796Q1354 793 1393 773T1455 723T1487 656T1492 581Q1487 545 1468 513T1424
451T1370 396T1320 348Q1290 318 1258 287T1196 228T1142 177T1105 138H1426L1409 38H910Z" />
<glyph unicode="&#xbe;" glyph-name="threequarters" horiz-adv-x="1500" d="M474 0H289L1064 1500H1240L474 0ZM239 1191Q264 1207 302 1230T382 1283T461 1344T522 1409L385 1372H220L248 1472H662L647 1385Q626 1355 591 1316T514 1248L428 1206Q473 1208 511
1195T577 1155T617 1092T627 1008Q620 931 573 877T452 789T288 738T100 722L118 822Q182 822 243 835T353 871T431 928T462 1003Q463 1032 452 1052T423 1084T379 1101T327 1107Q319 1107 305 1107T275 1105T245 1103T224 1102L239 1191ZM1424 188H1335L1309 38H1155L1181
188H886L904 288L1242 800L1392 784L1164 419L1054 288H1199L1225 437L1377 424L1353 288H1453L1424 188Z" />
<glyph unicode="&#xbf;" glyph-name="questiondown" horiz-adv-x="1100" d="M276 -22Q280 39 306 91T372 187T464 268T571 337Q613 361 648 391T712 460T761 551T793 668L1110 703Q1086 514 1002 380T765 160Q734 143 708 124T661 82T629 32T616 -30Q615 -70 627
-97T659 -143T707 -169T765 -181Q795 -184 832 -179T913 -157T1004 -105T1100 -15L1255 -166Q1178 -253 1105 -303T963 -377T829 -408T700 -415Q614 -415 535 -392T395 -321T302 -198T276 -22ZM1109 965Q1107 935 1091 907T1051 857T996 825T936 817Q876 824 843
864T814 965Q816 996 832 1024T872 1073T927 1106T987 1116Q1018 1114 1042 1101T1081 1068T1104 1022T1109 965Z" />
<glyph unicode="&#xc0;" glyph-name="Agrave" horiz-adv-x="1300" d="M20 0L644 1284L716 1494L1071 1525L1282 0H955L914 427H522L334 0H20ZM882 1361L764 990L619 646H893L869 990L882 1361ZM1018 1600H760L547 1891L900 1925L1018 1600Z" />
<glyph unicode="&#xc1;" glyph-name="Aacute" horiz-adv-x="1300" d="M20 0L644 1284L716 1494L1071 1525L1282 0H955L914 427H522L334 0H20ZM882 1361L764 990L619 646H893L869 990L882 1361ZM1003 1896L1390 1928L1040 1600H791L1003 1896Z" />
<glyph unicode="&#xc2;" glyph-name="Acircumflex" horiz-adv-x="1300" d="M20 0L644 1284L716 1494L1071 1525L1282 0H955L914 427H522L334 0H20ZM882 1361L764 990L619 646H893L869 990L882 1361ZM1244 1620H1029L977 1723L969 1850L917 1723L818 1620H588L809
1895L1110 1924L1244 1620Z" />
<glyph unicode="&#xc3;" glyph-name="Atilde" horiz-adv-x="1300" d="M20 0L644 1284L716 1494L1071 1525L1282 0H955L914 427H522L334 0H20ZM882 1361L764 990L619 646H893L869 990L882 1361ZM523 1627Q530 1669 552 1717T612 1805T700 1867T819 1884Q868 1879
899 1865T955 1835T1002 1810T1055 1804Q1097 1809 1118 1833T1152 1892L1317 1882Q1306 1828 1283 1779T1224 1694T1139 1637T1026 1620Q981 1622 950 1636T895 1666T846 1693T791 1700Q756 1695 737 1673T704 1620L523 1627Z" />
<glyph unicode="&#xc4;" glyph-name="Adieresis" horiz-adv-x="1300" d="M20 0L644 1284L716 1494L1071 1525L1282 0H955L914 427H522L334 0H20ZM882 1361L764 990L619 646H893L869 990L882 1361ZM607 1900H883L836 1634H560L607 1900ZM1007 1900H1283L1236 1634H960L1007
1900Z" />
<glyph unicode="&#xc5;" glyph-name="Aring" horiz-adv-x="1300" d="M979 1927Q1041 1920 1092 1897T1178 1837T1230 1751T1241 1641Q1235 1582 1202 1527T1118 1431Q1103 1419 1087 1408L1282 0H955L914 427H522L334 0H20L644 1284L693 1429Q683 1438 675 1448Q609
1523 614 1641Q616 1701 649 1756T734 1851T850 1913T979 1927ZM619 646H893L869 990L882 1354H880L764 990L619 646ZM948 1737Q926 1739 904 1732T865 1712T836 1680T824 1640Q823 1599 845 1574T915 1542Q936 1539 957 1546T995 1568T1024 1601T1037 1640Q1041
1682 1017 1707T948 1737Z" />
<glyph unicode="&#xc6;" glyph-name="AE" horiz-adv-x="1700" d="M1703 228L1635 0H697L755 231L790 427H547L301 0H6L746 1280L834 1500H1890L1850 1272H1254L1246 1133L1208 916H1719L1681 703H1170L1110 360L1079 228H1703ZM828 645L926 1200L830 939L673 645H828Z" />
<glyph unicode="&#xc7;" glyph-name="Ccedilla" horiz-adv-x="1300" d="M1177 133Q1067 42 948 6Q912 -4 876 -10Q891 -27 903 -46Q917 -69 927 -100T933 -171Q927 -228 896 -274T819 -351T716 -397T604 -407Q545 -402 490 -384T391 -344Q340 -319 296 -290L438
-131Q467 -149 496 -163Q520 -175 547 -186T597 -200Q628 -205 651 -191T671 -147Q669 -126 660 -103T641 -58T619 -21Q612 -10 607 -4Q512 15 439 58Q335 120 273 222T189 463T184 769Q194 871 224 967T303 1148T421 1303T575 1423T764 1497T986 1517Q1050 1514
1110 1502T1225 1469T1325 1417T1407 1344L1229 1170Q1190 1201 1156 1222T1091 1255T1027 1273T960 1280Q866 1282 789 1243T656 1134T564 971T520 772Q514 710 514 647T520 525T544 412T589 319T660 252T760 221Q829 215 912 239T1092 328L1177 133Z" />
<glyph unicode="&#xc8;" glyph-name="Egrave" horiz-adv-x="1200" d="M1127 228L1060 0H118L175 231L357 1263L364 1500H1314L1274 1272H680L670 1134L632 916H1145L1107 703H594L534 360L503 228H1127ZM1000 1600H742L529 1891L882 1925L1000 1600Z" />
<glyph unicode="&#xc9;" glyph-name="Eacute" horiz-adv-x="1200" d="M1127 228L1060 0H118L175 231L357 1263L364 1500H1314L1274 1272H680L670 1134L632 916H1145L1107 703H594L534 360L503 228H1127ZM850 1896L1237 1928L887 1600H638L850 1896Z" />
<glyph unicode="&#xca;" glyph-name="Ecircumflex" horiz-adv-x="1200" d="M1127 228L1060 0H118L175 231L357 1263L364 1500H1314L1274 1272H680L670 1134L632 916H1145L1107 703H594L534 360L503 228H1127ZM1180 1620H965L913 1723L905 1850L853 1723L754 1620H524L745
1895L1046 1924L1180 1620Z" />
<glyph unicode="&#xcb;" glyph-name="Edieresis" horiz-adv-x="1200" d="M1127 228L1060 0H118L175 231L357 1263L364 1500H1314L1274 1272H680L670 1134L632 916H1145L1107 703H594L534 360L503 228H1127ZM537 1900H813L766 1634H490L537 1900ZM937 1900H1213L1166
1634H890L937 1900Z" />
<glyph unicode="&#xcc;" glyph-name="Igrave" horiz-adv-x="600" d="M126 0L348 1263L356 1494L731 1525L463 0H126ZM686 1600H428L215 1891L568 1925L686 1600Z" />
<glyph unicode="&#xcd;" glyph-name="Iacute" horiz-adv-x="600" d="M126 0L348 1263L356 1494L731 1525L463 0H126ZM643 1896L1030 1928L680 1600H431L643 1896Z" />
<glyph unicode="&#xce;" glyph-name="Icircumflex" horiz-adv-x="600" d="M126 0L348 1263L356 1494L731 1525L463 0H126ZM887 1620H672L620 1723L612 1850L560 1723L461 1620H231L452 1895L753 1924L887 1620Z" />
<glyph unicode="&#xcf;" glyph-name="Idieresis" horiz-adv-x="600" d="M126 0L348 1263L356 1494L731 1525L463 0H126ZM284 1900H560L513 1634H237L284 1900ZM684 1900H960L913 1634H637L684 1900Z" />
<glyph unicode="&#xd0;" glyph-name="Eth" horiz-adv-x="1300" d="M171 888H301L367 1263L374 1493Q423 1498 476 1501T581 1506T677 1509T756 1510Q924 1510 1052 1472T1263 1349T1381 1131T1398 807Q1384 655 1343 537T1238 328T1092 176T912 74T706 18T482
0H145L262 665H132L171 888ZM709 1289H698Q693 1289 687 1288L679 1127L637 888H817L778 665H598L521 230Q636 234 718 262T858 334T952 433T1009 548T1039 667T1055 778Q1068 892 1063 986T1022 1147T911 1252T709 1289Z" />
<glyph unicode="&#xd1;" glyph-name="Ntilde" horiz-adv-x="1500" d="M1577 1527L1308 0H1007L712 700L624 1038L617 1037L594 691L473 0H146L368 1263L376 1494L722 1524L1021 810L1107 449L1113 450L1129 816L1249 1493L1577 1527ZM688 1627Q695 1669 717 1717T777
1805T865 1867T984 1884Q1033 1879 1064 1865T1120 1835T1167 1810T1220 1804Q1262 1809 1283 1833T1317 1892L1482 1882Q1471 1828 1448 1779T1389 1694T1304 1637T1191 1620Q1146 1622 1115 1636T1060 1666T1011 1693T956 1700Q921 1695 902 1673T869 1620L688
1627Z" />
<glyph unicode="&#xd2;" glyph-name="Ograve" horiz-adv-x="1600" d="M777 -17Q624 -11 509 46T321 204T219 442T209 750Q221 861 257 963T349 1153T479 1311T642 1430T833 1502T1047 1517Q1206 1506 1321 1450T1507 1295T1605 1060T1614 750Q1596 581 1528 438T1350
191T1095 32T777 -17ZM1275 721Q1284 830 1280 925T1247 1094T1159 1214T997 1269Q903 1277 825 1238T690 1130T596 969T549 783Q537 677 541 582T574 414T664 292T825 231Q887 223 942 239T1046 288T1134 369T1203 475T1251 595T1275 721ZM1198 1600H940L727 1891L1080
1925L1198 1600Z" />
<glyph unicode="&#xd3;" glyph-name="Oacute" horiz-adv-x="1600" d="M777 -17Q624 -11 509 46T321 204T219 442T209 750Q221 861 257 963T349 1153T479 1311T642 1430T833 1502T1047 1517Q1206 1506 1321 1450T1507 1295T1605 1060T1614 750Q1596 581 1528 438T1350
191T1095 32T777 -17ZM1275 721Q1284 830 1280 925T1247 1094T1159 1214T997 1269Q903 1277 825 1238T690 1130T596 969T549 783Q537 677 541 582T574 414T664 292T825 231Q887 223 942 239T1046 288T1134 369T1203 475T1251 595T1275 721ZM1145 1896L1532 1928L1182
1600H933L1145 1896Z" />
<glyph unicode="&#xd4;" glyph-name="Ocircumflex" horiz-adv-x="1600" d="M777 -17Q624 -11 509 46T321 204T219 442T209 750Q221 861 257 963T349 1153T479 1311T642 1430T833 1502T1047 1517Q1206 1506 1321 1450T1507 1295T1605 1060T1614 750Q1596 581 1528
438T1350 191T1095 32T777 -17ZM1275 721Q1284 830 1280 925T1247 1094T1159 1214T997 1269Q903 1277 825 1238T690 1130T596 969T549 783Q537 677 541 582T574 414T664 292T825 231Q887 223 942 239T1046 288T1134 369T1203 475T1251 595T1275 721ZM1384 1620H1169L1117
1723L1109 1850L1057 1723L958 1620H728L949 1895L1250 1924L1384 1620Z" />
<glyph unicode="&#xd5;" glyph-name="Otilde" horiz-adv-x="1600" d="M777 -17Q624 -11 509 46T321 204T219 442T209 750Q221 861 257 963T349 1153T479 1311T642 1430T833 1502T1047 1517Q1206 1506 1321 1450T1507 1295T1605 1060T1614 750Q1596 581 1528 438T1350
191T1095 32T777 -17ZM1275 721Q1284 830 1280 925T1247 1094T1159 1214T997 1269Q903 1277 825 1238T690 1130T596 969T549 783Q537 677 541 582T574 414T664 292T825 231Q887 223 942 239T1046 288T1134 369T1203 475T1251 595T1275 721ZM706 1627Q713 1669 735
1717T795 1805T883 1867T1002 1884Q1051 1879 1082 1865T1138 1835T1185 1810T1238 1804Q1280 1809 1301 1833T1335 1892L1500 1882Q1489 1828 1466 1779T1407 1694T1322 1637T1209 1620Q1164 1622 1133 1636T1078 1666T1029 1693T974 1700Q939 1695 920 1673T887
1620L706 1627Z" />
<glyph unicode="&#xd6;" glyph-name="Odieresis" horiz-adv-x="1600" d="M777 -17Q624 -11 509 46T321 204T219 442T209 750Q221 861 257 963T349 1153T479 1311T642 1430T833 1502T1047 1517Q1206 1506 1321 1450T1507 1295T1605 1060T1614 750Q1596 581 1528
438T1350 191T1095 32T777 -17ZM1275 721Q1284 830 1280 925T1247 1094T1159 1214T997 1269Q903 1277 825 1238T690 1130T596 969T549 783Q537 677 541 582T574 414T664 292T825 231Q887 223 942 239T1046 288T1134 369T1203 475T1251 595T1275 721ZM774 1900H1050L1003
1634H727L774 1900ZM1174 1900H1450L1403 1634H1127L1174 1900Z" />
<glyph unicode="&#xd7;" glyph-name="multiply" horiz-adv-x="1600" d="M490 119L330 269L760 633L458 998L672 1149L920 847L969 729L1012 847L1365 1149L1525 998L1096 633L1397 269L1183 119L936 419L887 538L844 419L490 119Z" />
<glyph unicode="&#xd8;" glyph-name="Oslash" horiz-adv-x="1600" d="M797 21Q644 27 529 84L521 88L361 -100H18L327 261Q265 355 239 480Q210 619 229 788Q241 899 277 1001T369 1191T499 1349T662 1468T853 1540T1067 1555Q1226 1544 1341 1487Q1352 1482 1363
1475L1470 1600H1804L1549 1300Q1602 1212 1625 1097Q1652 960 1634 788Q1616 619 1548 476T1370 229T1115 70T797 21ZM1017 1307Q923 1315 845 1276T710 1168T616 1007T569 821Q557 715 561 620Q562 580 568 544L1175 1255Q1116 1298 1017 1307ZM1295 759Q1304
868 1300 963Q1299 983 1297 1003L710 311Q765 279 845 269Q907 261 962 277T1066 326T1154 407T1223 513T1271 633T1295 759Z" />
<glyph unicode="&#xd9;" glyph-name="Ugrave" horiz-adv-x="1400" d="M1499 1500L1329 534Q1307 390 1248 282T1100 104T901 2T664 -17Q531 -5 438 43T290 169T220 351T228 582L348 1263L356 1494L727 1526L557 564Q540 492 544 433T570 328T628 256T714 221Q768
213 815 230T898 286T959 383T994 516L1168 1500H1499ZM1102 1600H844L631 1891L984 1925L1102 1600Z" />
<glyph unicode="&#xda;" glyph-name="Uacute" horiz-adv-x="1400" d="M1499 1500L1329 534Q1307 390 1248 282T1100 104T901 2T664 -17Q531 -5 438 43T290 169T220 351T228 582L348 1263L356 1494L727 1526L557 564Q540 492 544 433T570 328T628 256T714 221Q768
213 815 230T898 286T959 383T994 516L1168 1500H1499ZM1028 1896L1415 1928L1065 1600H816L1028 1896Z" />
<glyph unicode="&#xdb;" glyph-name="Ucircumflex" horiz-adv-x="1400" d="M1499 1500L1329 534Q1307 390 1248 282T1100 104T901 2T664 -17Q531 -5 438 43T290 169T220 351T228 582L348 1263L356 1494L727 1526L557 564Q540 492 544 433T570 328T628 256T714
221Q768 213 815 230T898 286T959 383T994 516L1168 1500H1499ZM1288 1620H1073L1021 1723L1013 1850L961 1723L862 1620H632L853 1895L1154 1924L1288 1620Z" />
<glyph unicode="&#xdc;" glyph-name="Udieresis" horiz-adv-x="1400" d="M1499 1500L1329 534Q1307 390 1248 282T1100 104T901 2T664 -17Q531 -5 438 43T290 169T220 351T228 582L348 1263L356 1494L727 1526L557 564Q540 492 544 433T570 328T628 256T714 221Q768
213 815 230T898 286T959 383T994 516L1168 1500H1499ZM680 1900H956L909 1634H633L680 1900ZM1080 1900H1356L1309 1634H1033L1080 1900Z" />
<glyph unicode="&#xdd;" glyph-name="Yacute" horiz-adv-x="1200" d="M711 1143L753 773L876 1143L1121 1500H1451L868 650L754 0H418L532 650L252 1492L586 1525L711 1143ZM950 1896L1337 1928L987 1600H738L950 1896Z" />
<glyph unicode="&#xde;" glyph-name="Thorn" horiz-adv-x="1300" d="M384 1500H735L702 1311H816Q856 1305 904 1295T1000 1266T1092 1217T1168 1141T1218 1032T1230 882Q1223 776 1187 683T1078 520T890 413T614 381H538L471 0H142L365 1267L384 1500ZM663 1093L577
605H681Q741 605 783 622T853 675T897 762T921 882Q927 933 914 972T875 1038T816 1079T748 1093H663Z" />
<glyph unicode="&#xdf;" glyph-name="germandbls" horiz-adv-x="1400" d="M466 -21L140 5L329 1073Q347 1188 394 1270T512 1404T676 1475T875 1489Q959 1483 1031 1460T1155 1394T1234 1284T1256 1127Q1253 1070 1232 1021T1176 932T1094 862T992 811Q1041 795
1087 763T1168 685T1221 585T1234 466Q1225 374 1193 303T1113 179T1005 90T877 32T739 4T601 0L559 224Q637 215 698 228T803 273T873 351T906 457Q914 521 896 568T847 643T780 680T715 681L659 902Q719 905 769 918T855 955T913 1017T935 1107Q937 1179 909
1222T834 1276Q800 1284 772 1275T723 1244T688 1190T667 1119L466 -21Z" />
<glyph unicode="&#xe0;" glyph-name="agrave" horiz-adv-x="1100" d="M839 885Q819 888 802 890T778 893Q703 893 646 862T547 779T482 658T449 510Q443 449 445 395T459 299T490 233T540 209Q574 209 604 220T661 250T708 289T744 329L839 885ZM483 -16Q406 -15
349 8T252 72T187 165T151 280T139 409T147 542Q156 614 180 685T243 820T337 938T462 1032T620 1094T812 1117Q873 1116 935 1108Q989 1101 1052 1086T1173 1043L1030 209L1016 0H694L722 162L567 -10Q556 -12 538 -14T483 -16ZM882 1200H624L411 1491L764 1525L882
1200Z" />
<glyph unicode="&#xe1;" glyph-name="aacute" horiz-adv-x="1100" d="M839 885Q819 888 802 890T778 893Q703 893 646 862T547 779T482 658T449 510Q443 449 445 395T459 299T490 233T540 209Q574 209 604 220T661 250T708 289T744 329L839 885ZM483 -16Q406 -15
349 8T252 72T187 165T151 280T139 409T147 542Q156 614 180 685T243 820T337 938T462 1032T620 1094T812 1117Q873 1116 935 1108Q989 1101 1052 1086T1173 1043L1030 209L1016 0H694L722 162L567 -10Q556 -12 538 -14T483 -16ZM806 1496L1193 1528L843 1200H594L806
1496Z" />
<glyph unicode="&#xe2;" glyph-name="acircumflex" horiz-adv-x="1100" d="M839 885Q819 888 802 890T778 893Q703 893 646 862T547 779T482 658T449 510Q443 449 445 395T459 299T490 233T540 209Q574 209 604 220T661 250T708 289T744 329L839 885ZM483 -16Q406
-15 349 8T252 72T187 165T151 280T139 409T147 542Q156 614 180 685T243 820T337 938T462 1032T620 1094T812 1117Q873 1116 935 1108Q989 1101 1052 1086T1173 1043L1030 209L1016 0H694L722 162L567 -10Q556 -12 538 -14T483 -16ZM1072 1220H857L805 1323L797
1450L745 1323L646 1220H416L637 1495L938 1524L1072 1220Z" />
<glyph unicode="&#xe3;" glyph-name="atilde" horiz-adv-x="1100" d="M839 885Q819 888 802 890T778 893Q703 893 646 862T547 779T482 658T449 510Q443 449 445 395T459 299T490 233T540 209Q574 209 604 220T661 250T708 289T744 329L839 885ZM483 -16Q406 -15
349 8T252 72T187 165T151 280T139 409T147 542Q156 614 180 685T243 820T337 938T462 1032T620 1094T812 1117Q873 1116 935 1108Q989 1101 1052 1086T1173 1043L1030 209L1016 0H694L722 162L567 -10Q556 -12 538 -14T483 -16ZM373 1247Q380 1289 402 1337T462
1425T550 1487T669 1504Q718 1499 749 1485T805 1455T852 1430T905 1424Q947 1429 968 1453T1002 1512L1167 1502Q1156 1448 1133 1399T1074 1314T989 1257T876 1240Q831 1242 800 1256T745 1286T696 1313T641 1320Q606 1315 587 1293T554 1240L373 1247Z" />
<glyph unicode="&#xe4;" glyph-name="adieresis" horiz-adv-x="1100" d="M839 885Q819 888 802 890T778 893Q703 893 646 862T547 779T482 658T449 510Q443 449 445 395T459 299T490 233T540 209Q574 209 604 220T661 250T708 289T744 329L839 885ZM483 -16Q406
-15 349 8T252 72T187 165T151 280T139 409T147 542Q156 614 180 685T243 820T337 938T462 1032T620 1094T812 1117Q873 1116 935 1108Q989 1101 1052 1086T1173 1043L1030 209L1016 0H694L722 162L567 -10Q556 -12 538 -14T483 -16ZM423 1500H699L652 1234H376L423
1500ZM823 1500H1099L1052 1234H776L823 1500Z" />
<glyph unicode="&#xe5;" glyph-name="aring" horiz-adv-x="1100" d="M807 1612Q869 1605 920 1582T1006 1522T1058 1436T1069 1326Q1063 1267 1030 1212T946 1116Q941 1112 936 1108Q989 1101 1052 1086T1173 1043L1030 209L1016 0H694L722 162L567 -10Q556 -12
538 -14T483 -16Q406 -15 349 8T252 72T187 165T151 280T139 409T147 542Q156 614 180 685T243 820T337 938T462 1032Q512 1060 571 1080Q531 1101 503 1133Q437 1208 442 1326Q444 1386 477 1441T562 1536T678 1598T807 1612ZM839 885Q819 888 802 890T778 893Q703
893 646 862T547 779T482 658T449 510Q443 449 445 395T459 299T490 233T540 209Q574 209 604 220T661 250T708 289T744 329L839 885ZM776 1422Q754 1424 732 1417T693 1397T664 1365T652 1325Q651 1284 673 1259T743 1227Q764 1224 785 1231T823 1253T852 1286T865
1325Q869 1367 845 1392T776 1422Z" />
<glyph unicode="&#xe6;" glyph-name="ae" horiz-adv-x="1700" d="M1314 1116Q1409 1111 1478 1084T1595 1013T1666 909T1695 779T1686 629T1639 466H985Q987 355 1040 285T1201 200Q1235 195 1268 201T1333 221T1397 253T1460 292L1589 157Q1544 108 1497 73T1395
17T1277 -12T1139 -17Q1103 -15 1064 -8T989 12T919 41T862 75L825 200L788 100Q762 77 725 55T643 15T547 -12T441 -17Q355 -11 290 14T181 85T119 198T107 358Q114 455 162 526T280 642T434 709T599 726Q642 724 677 722T740 714Q746 754 747 787T740 845T712
883T657 900Q598 904 543 895T442 872Q390 857 344 837L273 1021Q335 1051 405 1073Q465 1092 542 1106T704 1117Q819 1112 888 1087T999 1019Q1031 1040 1066 1059T1141 1091T1224 1112T1314 1116ZM706 516Q683 519 657 521T600 523Q553 523 514 514T445 484T398
433T378 359Q374 290 403 248T486 198Q524 193 556 207T613 239Q641 260 666 289L706 516ZM1145 671H1428Q1431 711 1429 750T1412 820T1368 874T1291 903Q1249 909 1214 898T1152 865T1105 814T1078 756L969 653L1145 671Z" />
<glyph unicode="&#xe7;" glyph-name="ccedilla" horiz-adv-x="1042" d="M924 814Q901 841 877 857T829 882T780 894T731 900Q674 904 626 877T542 802T485 693T459 563Q455 496 456 434T472 323T521 242T618 200Q644 196 678 203T746 223T811 253T865 288L943
93Q907 67 864 45T771 8Q741 -1 709 -8Q726 -25 739 -46Q753 -69 763 -100T769 -171Q763 -228 732 -274T655 -351T552 -397T440 -407Q381 -402 326 -384T227 -344Q176 -319 132 -290L274 -131Q303 -149 332 -163Q356 -175 383 -186T433 -200Q464 -205 487 -191T507
-147Q505 -126 496 -103T477 -58T456 -22T439 0H460Q396 15 348 44Q262 94 214 173T151 355T145 575Q153 684 201 785T330 964T522 1083T771 1117Q825 1113 871 1104T958 1078T1034 1032T1101 961L924 814Z" />
<glyph unicode="&#xe8;" glyph-name="egrave" horiz-adv-x="1100" d="M1000 137Q962 100 919 71T824 21T710 -9T573 -16Q433 -10 343 39T202 165T137 342T134 547Q142 614 163 684T221 820T308 941T424 1039T571 1101T749 1116Q863 1109 940 1066T1061 955T1116
804T1110 632Q1103 600 1091 570T1065 517Q1050 490 1034 466H419Q412 404 425 355T468 271T540 218T631 200Q674 200 709 209T771 231T820 260T857 287L1000 137ZM853 672Q871 713 870 753T851 824T802 876T725 900Q678 903 643 892T582 859T538 811T507 756L398
653L574 671L853 672ZM850 1200H592L379 1491L732 1525L850 1200Z" />
<glyph unicode="&#xe9;" glyph-name="eacute" horiz-adv-x="1100" d="M1000 137Q962 100 919 71T824 21T710 -9T573 -16Q433 -10 343 39T202 165T137 342T134 547Q142 614 163 684T221 820T308 941T424 1039T571 1101T749 1116Q863 1109 940 1066T1061 955T1116
804T1110 632Q1103 600 1091 570T1065 517Q1050 490 1034 466H419Q412 404 425 355T468 271T540 218T631 200Q674 200 709 209T771 231T820 260T857 287L1000 137ZM853 672Q871 713 870 753T851 824T802 876T725 900Q678 903 643 892T582 859T538 811T507 756L398
653L574 671L853 672ZM862 1496L1249 1528L899 1200H650L862 1496Z" />
<glyph unicode="&#xea;" glyph-name="ecircumflex" horiz-adv-x="1100" d="M1000 137Q962 100 919 71T824 21T710 -9T573 -16Q433 -10 343 39T202 165T137 342T134 547Q142 614 163 684T221 820T308 941T424 1039T571 1101T749 1116Q863 1109 940 1066T1061 955T1116
804T1110 632Q1103 600 1091 570T1065 517Q1050 490 1034 466H419Q412 404 425 355T468 271T540 218T631 200Q674 200 709 209T771 231T820 260T857 287L1000 137ZM853 672Q871 713 870 753T851 824T802 876T725 900Q678 903 643 892T582 859T538 811T507 756L398
653L574 671L853 672ZM1078 1220H863L811 1323L803 1450L751 1323L652 1220H422L643 1495L944 1524L1078 1220Z" />
<glyph unicode="&#xeb;" glyph-name="edieresis" horiz-adv-x="1100" d="M1000 137Q962 100 919 71T824 21T710 -9T573 -16Q433 -10 343 39T202 165T137 342T134 547Q142 614 163 684T221 820T308 941T424 1039T571 1101T749 1116Q863 1109 940 1066T1061 955T1116
804T1110 632Q1103 600 1091 570T1065 517Q1050 490 1034 466H419Q412 404 425 355T468 271T540 218T631 200Q674 200 709 209T771 231T820 260T857 287L1000 137ZM853 672Q871 713 870 753T851 824T802 876T725 900Q678 903 643 892T582 859T538 811T507 756L398
653L574 671L853 672ZM487 1500H763L716 1234H440L487 1500ZM887 1500H1163L1116 1234H840L887 1500Z" />
<glyph unicode="&#xec;" glyph-name="igrave" horiz-adv-x="600" d="M442 0H136L320 1049L632 1081L442 0ZM609 1237H351L138 1528L491 1562L609 1237Z" />
<glyph unicode="&#xed;" glyph-name="iacute" horiz-adv-x="600" d="M442 0H136L320 1049L632 1081L442 0ZM601 1533L988 1565L638 1237H389L601 1533Z" />
<glyph unicode="&#xee;" glyph-name="icircumflex" horiz-adv-x="600" d="M442 0H136L320 1049L632 1081L442 0ZM855 1257H640L588 1360L580 1487L528 1360L429 1257H199L420 1532L721 1561L855 1257Z" />
<glyph unicode="&#xef;" glyph-name="idieresis" horiz-adv-x="600" d="M442 0H136L320 1049L632 1081L442 0ZM217 1537H493L446 1271H170L217 1537ZM617 1537H893L846 1271H570L617 1537Z" />
<glyph unicode="&#xf0;" glyph-name="eth" horiz-adv-x="1300" d="M554 1154L785 1320L637 1296Q597 1310 560 1310Q533 1310 508 1308T459 1300V1508Q492 1511 514 1513T552 1516T578 1517H598Q698 1517 782 1495T934 1433L1106 1561L1216 1395L1004 1239H1119Q1148
1174 1171 1100T1207 946T1222 782T1214 612Q1205 546 1184 471T1128 323T1042 183T925 68T774 -4T586 -17Q469 -4 389 36T263 139T201 287T195 472Q206 585 244 674T350 823T512 913T732 936Q780 934 827 928T919 904Q920 929 917 958T905 1018T882 1076T850 1126L669
993L554 1154ZM903 596Q889 616 871 634T830 668T776 694T706 712Q657 719 619 703T552 652T505 567T479 455Q474 413 478 372T499 296T546 237T624 208Q664 203 701 220T769 268T823 340T860 426Q877 469 886 510T903 596Z" />
<glyph unicode="&#xf1;" glyph-name="ntilde" horiz-adv-x="1200" d="M653 1126L620 937L736 1088Q770 1099 805 1107T875 1117Q929 1121 967 1118T1036 1103T1090 1072T1139 1024Q1166 993 1176 954T1186 874T1181 795T1170 727L1042 0H729L862 757Q873 821 850
855T787 900Q771 904 749 902T700 889T648 860T598 816L455 0H142L334 1093L653 1126ZM448 1247Q455 1289 477 1337T537 1425T625 1487T744 1504Q793 1499 824 1485T880 1455T927 1430T980 1424Q1022 1429 1043 1453T1077 1512L1242 1502Q1231 1448 1208 1399T1149
1314T1064 1257T951 1240Q906 1242 875 1256T820 1286T771 1313T716 1320Q681 1315 662 1293T629 1240L448 1247Z" />
<glyph unicode="&#xf2;" glyph-name="ograve" horiz-adv-x="1200" d="M600 -17Q481 -7 395 36T256 153T183 327T173 553Q184 676 237 783T373 968T566 1086T799 1117Q918 1107 1004 1064T1143 948T1218 776T1228 553Q1221 471 1194 395T1125 253T1026 134T902
45T758 -7T600 -17ZM911 528Q918 598 918 661T902 774T852 856T757 897Q706 904 660 878T577 804T518 695T489 571Q483 500 484 437T501 324T550 242T641 203Q696 196 742 223T824 297T882 405T911 528ZM902 1200H644L431 1491L784 1525L902 1200Z" />
<glyph unicode="&#xf3;" glyph-name="oacute" horiz-adv-x="1200" d="M600 -17Q481 -7 395 36T256 153T183 327T173 553Q184 676 237 783T373 968T566 1086T799 1117Q918 1107 1004 1064T1143 948T1218 776T1228 553Q1221 471 1194 395T1125 253T1026 134T902
45T758 -7T600 -17ZM911 528Q918 598 918 661T902 774T852 856T757 897Q706 904 660 878T577 804T518 695T489 571Q483 500 484 437T501 324T550 242T641 203Q696 196 742 223T824 297T882 405T911 528ZM876 1496L1263 1528L913 1200H664L876 1496Z" />
<glyph unicode="&#xf4;" glyph-name="ocircumflex" horiz-adv-x="1200" d="M600 -17Q481 -7 395 36T256 153T183 327T173 553Q184 676 237 783T373 968T566 1086T799 1117Q918 1107 1004 1064T1143 948T1218 776T1228 553Q1221 471 1194 395T1125 253T1026 134T902
45T758 -7T600 -17ZM911 528Q918 598 918 661T902 774T852 856T757 897Q706 904 660 878T577 804T518 695T489 571Q483 500 484 437T501 324T550 242T641 203Q696 196 742 223T824 297T882 405T911 528ZM1130 1220H915L863 1323L855 1450L803 1323L704 1220H474L695
1495L996 1524L1130 1220Z" />
<glyph unicode="&#xf5;" glyph-name="otilde" horiz-adv-x="1200" d="M600 -17Q481 -7 395 36T256 153T183 327T173 553Q184 676 237 783T373 968T566 1086T799 1117Q918 1107 1004 1064T1143 948T1218 776T1228 553Q1221 471 1194 395T1125 253T1026 134T902
45T758 -7T600 -17ZM911 528Q918 598 918 661T902 774T852 856T757 897Q706 904 660 878T577 804T518 695T489 571Q483 500 484 437T501 324T550 242T641 203Q696 196 742 223T824 297T882 405T911 528ZM418 1247Q425 1289 447 1337T507 1425T595 1487T714 1504Q763
1499 794 1485T850 1455T897 1430T950 1424Q992 1429 1013 1453T1047 1512L1212 1502Q1201 1448 1178 1399T1119 1314T1034 1257T921 1240Q876 1242 845 1256T790 1286T741 1313T686 1320Q651 1315 632 1293T599 1240L418 1247Z" />
<glyph unicode="&#xf6;" glyph-name="odieresis" horiz-adv-x="1200" d="M600 -17Q481 -7 395 36T256 153T183 327T173 553Q184 676 237 783T373 968T566 1086T799 1117Q918 1107 1004 1064T1143 948T1218 776T1228 553Q1221 471 1194 395T1125 253T1026 134T902
45T758 -7T600 -17ZM911 528Q918 598 918 661T902 774T852 856T757 897Q706 904 660 878T577 804T518 695T489 571Q483 500 484 437T501 324T550 242T641 203Q696 196 742 223T824 297T882 405T911 528ZM487 1500H763L716 1234H440L487 1500ZM887 1500H1163L1116
1234H840L887 1500Z" />
<glyph unicode="&#xf7;" glyph-name="divide" horiz-adv-x="1100" d="M264 724H1164V569H264V724ZM641 959Q643 992 660 1022T703 1074T760 1108T824 1117Q889 1109 923 1067T954 959Q952 926 935 897T893 845T835 810T771 800Q738 802 713 815T671 849T647 899T641
959ZM526 303Q528 336 545 366T588 418T645 452T709 461Q774 453 808 411T839 303Q837 270 820 241T778 189T720 154T656 144Q623 146 598 159T556 193T532 243T526 303Z" />
<glyph unicode="&#xf8;" glyph-name="oslash" horiz-adv-x="1200" d="M620 20Q515 29 435 63L308 -100H58L281 183L276 190Q223 263 203 364T193 590Q204 713 257 820T393 1005T586 1123T819 1154Q928 1145 1009 1107L1089 1209H1329L1159 990Q1161 987 1163 984Q1217
912 1238 813T1248 590Q1241 508 1214 432T1145 290T1046 171T922 82T778 30T620 20ZM777 934Q726 941 680 915T597 841T538 732T509 608Q503 537 504 473V467L852 908Q822 928 777 934ZM931 565Q938 635 937 698V707L591 262Q620 245 661 240Q716 233 762 260T844
334T902 442T931 565Z" />
<glyph unicode="&#xf9;" glyph-name="ugrave" horiz-adv-x="1200" d="M921 1093L1240 1126L1042 0H729L757 163L619 11Q598 2 564 -7T476 -17Q386 -17 328 17T239 107T202 236T210 384L335 1093L654 1126L523 384Q515 352 515 322T524 268T550 225T595 200Q614
195 637 198T684 212T733 239T777 276L921 1093ZM935 1200H677L464 1491L817 1525L935 1200Z" />
<glyph unicode="&#xfa;" glyph-name="uacute" horiz-adv-x="1200" d="M921 1093L1240 1126L1042 0H729L757 163L619 11Q598 2 564 -7T476 -17Q386 -17 328 17T239 107T202 236T210 384L335 1093L654 1126L523 384Q515 352 515 322T524 268T550 225T595 200Q614
195 637 198T684 212T733 239T777 276L921 1093ZM868 1496L1255 1528L905 1200H656L868 1496Z" />
<glyph unicode="&#xfb;" glyph-name="ucircumflex" horiz-adv-x="1200" d="M921 1093L1240 1126L1042 0H729L757 163L619 11Q598 2 564 -7T476 -17Q386 -17 328 17T239 107T202 236T210 384L335 1093L654 1126L523 384Q515 352 515 322T524 268T550 225T595 200Q614
195 637 198T684 212T733 239T777 276L921 1093ZM1140 1220H925L873 1323L865 1450L813 1323L714 1220H484L705 1495L1006 1524L1140 1220Z" />
<glyph unicode="&#xfc;" glyph-name="udieresis" horiz-adv-x="1200" d="M921 1093L1240 1126L1042 0H729L757 163L619 11Q598 2 564 -7T476 -17Q386 -17 328 17T239 107T202 236T210 384L335 1093L654 1126L523 384Q515 352 515 322T524 268T550 225T595 200Q614
195 637 198T684 212T733 239T777 276L921 1093ZM517 1500H793L746 1234H470L517 1500ZM917 1500H1193L1146 1234H870L917 1500Z" />
<glyph unicode="&#xfd;" glyph-name="yacute" horiz-adv-x="1100" d="M588 670L582 190L744 670L980 1095L1297 1124L692 8Q653 -64 620 -127T553 -245T485 -343T410 -417T320 -463T210 -480Q177 -480 140 -470T68 -444T9 -410T-26 -374L127 -194Q142 -207 154
-214T176 -226T197 -231T222 -234Q272 -239 313 -194T404 -47L188 1093L503 1121L588 670ZM815 1496L1202 1528L852 1200H603L815 1496Z" />
<glyph unicode="&#xfe;" glyph-name="thorn" horiz-adv-x="1200" d="M908 528Q919 592 917 656T897 772T844 858T754 897Q699 902 653 875T573 801T516 694T486 571Q478 502 479 439T496 327T547 244T638 203Q697 194 743 221T822 297T876 406T908 528ZM671 1527L613
1201L501 1030L696 1109Q721 1113 745 1115T796 1117Q910 1117 996 1075T1137 958T1215 780T1228 553Q1221 474 1195 399T1128 259T1030 139T906 48T760 -6T597 -17Q571 -15 547 -14T499 -9L333 75L384 -99L334 -380H2L333 1493L671 1527Z" />
<glyph unicode="&#xff;" glyph-name="ydieresis" horiz-adv-x="1100" d="M588 670L582 190L744 670L980 1095L1297 1124L692 8Q653 -64 620 -127T553 -245T485 -343T410 -417T320 -463T210 -480Q177 -480 140 -470T68 -444T9 -410T-26 -374L127 -194Q142 -207
154 -214T176 -226T197 -231T222 -234Q272 -239 313 -194T404 -47L188 1093L503 1121L588 670ZM487 1500H763L716 1234H440L487 1500ZM887 1500H1163L1116 1234H840L887 1500Z" />
<glyph unicode="&#x2013;" glyph-name="endash" horiz-adv-x="1100" d="M110 624H1110L1070 400H70L110 624Z" />
<glyph unicode="&#x2014;" glyph-name="emdash" horiz-adv-x="2100" d="M110 624H2110L2070 400H70L110 624Z" />
<glyph unicode="&#x2018;" glyph-name="quoteleft" horiz-adv-x="700" d="M437 1079Q436 1044 422 1014T384 962T326 930T252 925Q223 929 198 941T155 974T126 1020T115 1079Q115 1118 129 1166T175 1265T254 1367T370 1466L462 1408Q448 1390 433 1367T403 1319T377
1267T358 1217Q376 1209 391 1199T416 1172T432 1133T437 1079Z" />
<glyph unicode="&#x2019;" glyph-name="quoteright" horiz-adv-x="700" d="M163 1321Q164 1356 178 1386T216 1438T274 1470T348 1475Q377 1471 402 1459T445 1426T474 1380T485 1321Q485 1282 471 1234T425 1135T346 1032T230 934L138 992Q152 1010 167 1033T197
1081T222 1133T242 1183Q224 1191 209 1201T184 1228T168 1266T163 1321Z" />
<glyph unicode="&#x201a;" glyph-name="quotesinglbase" horiz-adv-x="700" d="M163 121Q164 156 178 186T216 238T274 270T348 275Q377 271 402 259T445 226T474 180T485 121Q485 82 471 34T425 -65T346 -168T230 -266L138 -208Q152 -190 167 -167T197 -119T222
-67T242 -17Q224 -9 209 1T184 28T168 66T163 121Z" />
<glyph unicode="&#x201c;" glyph-name="quotedblleft" horiz-adv-x="1000" d="M437 1079Q436 1044 422 1014T384 962T326 930T252 925Q223 929 198 941T155 974T126 1020T115 1079Q115 1118 129 1166T175 1265T254 1367T370 1466L462 1408Q448 1390 433 1367T403
1319T377 1267T358 1217Q376 1209 391 1199T416 1172T432 1133T437 1079ZM837 1079Q836 1044 822 1014T784 962T726 930T652 925Q623 929 598 941T555 974T526 1020T515 1079Q515 1118 529 1166T575 1265T654 1367T770 1466L862 1408Q848 1390 833 1367T803 1319T777
1267T758 1217Q776 1209 791 1199T816 1172T832 1133T837 1079Z" />
<glyph unicode="&#x201d;" glyph-name="quotedblright" horiz-adv-x="1000" d="M163 1321Q164 1356 178 1386T216 1438T274 1470T348 1475Q377 1471 402 1459T445 1426T474 1380T485 1321Q485 1282 471 1234T425 1135T346 1032T230 934L138 992Q152 1010 167 1033T197
1081T222 1133T242 1183Q224 1191 209 1201T184 1228T168 1266T163 1321ZM563 1321Q564 1356 578 1386T616 1438T674 1470T748 1475Q777 1471 802 1459T845 1426T874 1380T885 1321Q885 1282 871 1234T825 1135T746 1032T630 934L538 992Q552 1010 567 1033T597
1081T622 1133T642 1183Q624 1191 609 1201T584 1228T568 1266T563 1321Z" />
<glyph unicode="&#x201e;" glyph-name="quotedblbase" horiz-adv-x="1000" d="M163 121Q164 156 178 186T216 238T274 270T348 275Q377 271 402 259T445 226T474 180T485 121Q485 82 471 34T425 -65T346 -168T230 -266L138 -208Q152 -190 167 -167T197 -119T222
-67T242 -17Q224 -9 209 1T184 28T168 66T163 121ZM563 121Q564 156 578 186T616 238T674 270T748 275Q777 271 802 259T845 226T874 180T885 121Q885 82 871 34T825 -65T746 -168T630 -266L538 -208Q552 -190 567 -167T597 -119T622 -67T642 -17Q624 -9 609 1T584
28T568 66T563 121Z" />
<glyph unicode="&#x2022;" glyph-name="bullet" horiz-adv-x="1200" d="M298 807Q298 867 321 920T385 1013T478 1076T592 1100Q652 1100 705 1077T799 1014T862 921T886 807Q886 747 863 693T801 597T708 532T595 508Q535 508 481 532T387 597T322 692T298 807Z" />
<glyph unicode="&#x2039;" glyph-name="guilsinglleft" horiz-adv-x="900" d="M878 1106L927 880L543 583L461 550L531 517L813 224L677 -13L208 476L234 620L878 1106Z" />
<glyph unicode="&#x203a;" glyph-name="guilsinglright" horiz-adv-x="900" d="M886 619L860 476L218 -13L166 224L552 517L631 550L562 582L284 880L413 1106L886 619Z" />
</font>
</defs>
</svg>
